<?xml version="1.0" standalone="no"?>
<!DOCTYPE svg PUBLIC "-//W3C//DTD SVG 20010904//EN"
 "http://www.w3.org/TR/2001/REC-SVG-20010904/DTD/svg10.dtd">
<svg version="1.0" xmlns="http://www.w3.org/2000/svg"
 width="1308.000000pt" height="650.000000pt" viewBox="0 0 1308.000000 650.000000"
 preserveAspectRatio="xMidYMid meet">

<g transform="translate(0.000000,650.000000) scale(0.100000,-0.100000)"
fill="#000000" stroke="none">
<path d="M977 6473 c-4 -3 -7 -14 -7 -24 0 -9 -6 -20 -12 -23 -10 -5 -10 -7 0
-12 7 -3 12 -26 12 -60 0 -30 5 -54 10 -54 6 0 10 25 10 55 0 42 3 55 15 55 8
0 15 5 15 10 0 6 -7 10 -15 10 -21 0 -19 38 3 43 14 4 13 5 -4 6 -11 0 -24 -2
-27 -6z"/>
<path d="M1315 6470 c3 -5 10 -10 16 -10 5 0 9 5 9 10 0 6 -7 10 -16 10 -8 0
-12 -4 -9 -10z"/>
<path d="M2265 6470 c3 -5 10 -10 16 -10 5 0 9 5 9 10 0 6 -7 10 -16 10 -8 0
-12 -4 -9 -10z"/>
<path d="M2540 6455 c-13 -14 -22 -26 -19 -28 2 -1 16 10 31 25 15 15 23 28
19 28 -4 0 -18 -11 -31 -25z"/>
<path d="M540 6450 c-44 -44 -16 -150 41 -150 30 0 59 18 59 37 0 15 -2 15
-18 0 -22 -20 -53 -22 -70 -5 -7 7 -12 30 -12 53 0 23 5 46 12 53 17 17 48 15
70 -5 16 -15 18 -15 18 0 0 37 -68 49 -100 17z"/>
<path d="M2640 6466 c0 -2 7 -9 15 -16 13 -11 14 -10 9 4 -5 14 -24 23 -24 12z"/>
<path d="M2090 6446 c0 -8 -6 -17 -12 -19 -10 -4 -10 -7 -1 -14 6 -5 13 -31
15 -58 3 -43 6 -50 26 -53 12 -2 22 1 22 7 0 6 -7 11 -15 11 -11 0 -15 12 -15
45 0 33 4 45 15 45 8 0 15 5 15 10 0 6 -7 10 -15 10 -8 0 -15 7 -15 15 0 8 -4
15 -10 15 -5 0 -10 -6 -10 -14z"/>
<path d="M690 6410 c-11 -11 -20 -31 -20 -45 0 -29 32 -65 58 -65 34 0 56 25
56 65 0 60 -53 86 -94 45z m70 -14 c28 -35 -11 -93 -47 -70 -36 22 -23 84 17
84 10 0 23 -7 30 -14z"/>
<path d="M820 6365 c0 -78 18 -88 22 -12 3 48 5 52 28 52 23 0 25 -4 28 -52 2
-29 8 -53 13 -53 6 0 9 24 7 56 -3 66 -23 88 -58 66 -12 -7 -20 -8 -20 -2 0 5
-4 10 -10 10 -6 0 -10 -28 -10 -65z"/>
<path d="M1052 6374 c3 -62 20 -83 54 -69 17 7 17 8 -5 14 -28 7 -39 33 -35
79 1 17 -2 32 -7 32 -6 0 -9 -25 -7 -56z"/>
<path d="M1128 6378 c-4 -56 -1 -78 12 -78 5 0 8 29 7 65 -2 78 -13 85 -19 13z"/>
<path d="M1202 6421 c-25 -16 -10 -55 26 -65 17 -5 32 -13 32 -18 0 -15 -32
-22 -51 -10 -11 7 -20 8 -24 2 -7 -11 26 -30 53 -30 51 0 52 61 1 76 -37 11
-35 30 4 28 29 -2 36 10 11 20 -21 8 -36 7 -52 -3z"/>
<path d="M1320 6365 c0 -37 4 -65 10 -65 6 0 10 28 10 65 0 37 -4 65 -10 65
-6 0 -10 -28 -10 -65z"/>
<path d="M1390 6410 c-11 -11 -20 -31 -20 -45 0 -29 32 -65 58 -65 34 0 56 25
56 65 0 60 -53 86 -94 45z m70 -14 c28 -35 -11 -93 -47 -70 -36 22 -23 84 17
84 10 0 23 -7 30 -14z"/>
<path d="M1520 6365 c0 -78 18 -88 22 -12 3 48 5 52 28 52 23 0 25 -4 28 -52
2 -29 8 -53 13 -53 6 0 9 24 7 56 -3 66 -23 88 -58 66 -12 -7 -20 -8 -20 -2 0
5 -4 10 -10 10 -6 0 -10 -28 -10 -65z"/>
<path d="M1730 6363 c0 -76 18 -85 22 -11 2 42 7 54 22 56 25 5 36 -14 36 -65
0 -24 4 -43 9 -43 4 0 8 12 8 28 0 75 2 84 26 80 19 -3 22 -10 25 -55 2 -29 8
-53 13 -53 6 0 9 24 7 56 -3 66 -23 88 -59 66 -14 -9 -24 -10 -33 -3 -6 5 -26
9 -44 9 l-32 -1 0 -64z"/>
<path d="M1957 6423 c-15 -14 -6 -21 24 -19 18 0 34 -5 36 -11 3 -9 -6 -13
-25 -13 -16 0 -35 -7 -42 -15 -27 -32 13 -80 49 -58 13 8 21 9 30 0 6 -6 12
-9 15 -6 9 10 -12 112 -25 120 -17 10 -53 12 -62 2z m61 -80 c-2 -11 -14 -19
-31 -21 -22 -3 -27 1 -27 17 0 17 6 21 31 21 24 0 30 -4 27 -17z"/>
<path d="M2170 6365 c0 -78 18 -88 22 -12 3 45 6 52 26 55 12 2 22 8 22 13 0
13 -24 11 -38 -3 -9 -9 -12 -9 -12 0 0 7 -4 12 -10 12 -6 0 -10 -28 -10 -65z"/>
<path d="M2270 6365 c0 -37 4 -65 10 -65 6 0 10 28 10 65 0 37 -4 65 -10 65
-6 0 -10 -28 -10 -65z"/>
<path d="M2339 6401 c26 -36 26 -37 1 -68 -11 -15 -18 -29 -14 -32 3 -3 16 7
28 22 l23 28 17 -25 c9 -14 21 -26 27 -26 6 0 1 13 -10 29 -12 16 -21 32 -21
36 0 4 9 20 21 36 25 35 8 39 -19 4 l-20 -25 -16 25 c-9 14 -21 25 -27 25 -6
0 -1 -13 10 -29z"/>
<path d="M2667 6371 c-4 -17 -3 -21 5 -13 5 5 8 16 6 23 -3 8 -7 3 -11 -10z"/>
<path d="M2588 6353 c6 -2 18 -2 25 0 6 3 1 5 -13 5 -14 0 -19 -2 -12 -5z"/>
<path d="M2540 6346 c0 -2 8 -10 18 -17 15 -13 16 -12 3 4 -13 16 -21 21 -21
13z"/>
<path d="M511 5873 c-2 -23 31 -93 40 -87 5 3 9 10 9 15 0 6 -4 8 -9 5 -5 -4
-16 13 -24 36 -9 24 -16 37 -16 31z"/>
<path d="M575 5869 c-4 -6 -5 -12 -2 -15 2 -3 7 2 10 11 7 17 1 20 -8 4z"/>
<path d="M613 5820 c0 -25 2 -35 4 -22 2 12 2 32 0 45 -2 12 -4 2 -4 -23z"/>
<path d="M654 5846 c-16 -41 20 -86 48 -58 6 6 0 8 -16 5 -19 -4 -26 -1 -26
11 0 11 9 16 26 16 19 0 25 5 22 18 -4 22 -46 29 -54 8z m46 -6 c0 -5 -9 -10
-20 -10 -11 0 -20 5 -20 10 0 6 9 10 20 10 11 0 20 -4 20 -10z"/>
<path d="M777 5853 c-4 -3 -7 -11 -7 -17 0 -6 5 -5 12 2 6 6 9 14 7 17 -3 3
-9 2 -12 -2z"/>
<path d="M741 5814 c0 -11 3 -14 6 -6 3 7 2 16 -1 19 -3 4 -6 -2 -5 -13z"/>
<path d="M791 5823 c-2 -20 11 -43 20 -37 5 3 9 13 9 22 0 14 -2 14 -9 3 -7
-11 -10 -10 -14 5 -2 10 -5 14 -6 7z"/>
<path d="M722 5383 l1 -68 6 55 6 55 18 -32 c10 -18 20 -33 22 -33 2 0 12 15
22 33 l18 32 6 -55 6 -55 1 68 c1 38 -2 67 -8 67 -5 0 -18 -17 -29 -37 l-19
-38 -18 38 c-10 20 -21 37 -26 37 -4 0 -7 -30 -6 -67z"/>
<path d="M960 5385 c0 -53 3 -65 16 -65 12 0 14 4 7 13 -5 6 -9 36 -9 65 1 28
-2 52 -6 52 -5 0 -8 -29 -8 -65z"/>
<path d="M1070 5440 c0 -5 5 -10 10 -10 6 0 10 5 10 10 0 6 -4 10 -10 10 -5 0
-10 -4 -10 -10z"/>
<path d="M1282 5388 c2 -34 8 -63 13 -65 6 -2 9 22 7 62 -2 36 -8 65 -13 65
-6 0 -9 -27 -7 -62z"/>
<path d="M1021 5428 c-1 -9 -7 -19 -13 -21 -10 -4 -10 -6 0 -6 7 -1 12 -16 12
-41 0 -32 4 -40 18 -39 10 0 12 3 5 6 -7 2 -13 20 -13 39 0 20 5 34 13 34 8 0
9 3 1 8 -6 4 -14 14 -17 22 -4 12 -6 12 -6 -2z"/>
<path d="M861 5380 c-1 -46 9 -61 42 -58 25 2 27 5 26 48 l-2 45 -6 -40 c-7
-46 -37 -62 -45 -23 -3 13 -7 32 -9 43 -3 11 -5 4 -6 -15z"/>
<path d="M1070 5365 c0 -25 5 -45 10 -45 6 0 10 20 10 45 0 25 -4 45 -10 45
-5 0 -10 -20 -10 -45z"/>
<path d="M1202 5398 c-15 -15 -15 -51 0 -66 14 -14 44 -16 52 -4 2 4 -8 8 -22
7 -23 0 -27 4 -27 30 0 26 4 30 27 30 14 -1 24 3 22 7 -8 12 -38 10 -52 -4z"/>
<path d="M1335 5401 c-3 -6 7 -9 21 -8 36 3 43 -21 7 -25 -20 -2 -28 -9 -28
-23 0 -16 7 -20 36 -21 34 -2 35 -1 31 30 -3 17 -9 37 -14 44 -12 14 -44 16
-53 3z m53 -53 c-5 -15 -48 -24 -48 -10 0 14 12 22 33 22 10 0 17 -5 15 -12z"/>
<path d="M1431 5396 c-12 -15 -2 -27 32 -39 28 -10 9 -30 -22 -22 -19 5 -23 4
-15 -5 7 -6 22 -10 35 -8 32 4 33 42 2 46 -13 2 -23 10 -23 19 0 11 6 14 26 9
17 -5 23 -3 19 4 -9 14 -40 12 -54 -4z"/>
<path d="M1514 5395 c-8 -20 4 -35 27 -35 11 0 19 -7 19 -16 0 -12 -7 -15 -25
-12 -13 3 -22 1 -19 -3 8 -14 40 -11 53 5 12 15 2 27 -32 39 -24 9 -11 30 14
24 11 -3 17 -1 13 4 -8 14 -44 10 -50 -6z"/>
<path d="M3298 5380 l32 -35 32 33 c18 17 28 32 22 32 -6 0 -21 -11 -34 -25
l-24 -25 -30 27 c-30 27 -30 27 2 -7z"/>
<path d="M1120 5370 c0 -5 9 -10 20 -10 11 0 20 5 20 10 0 6 -9 10 -20 10 -11
0 -20 -4 -20 -10z"/>
<path d="M7420 4285 c0 -37 4 -65 10 -65 6 0 10 11 10 25 0 18 5 25 19 25 36
0 51 12 51 40 0 30 -15 40 -61 40 l-29 0 0 -65z m68 23 c3 -13 -3 -18 -22 -18
-20 0 -26 5 -26 21 0 15 5 20 22 17 13 -2 24 -11 26 -20z"/>
<path d="M7760 4324 c0 -21 -3 -24 -20 -19 -26 8 -50 -11 -50 -40 0 -30 18
-42 58 -42 l32 0 0 64 c0 35 -4 63 -10 63 -5 0 -10 -12 -10 -26z m-5 -59 c0
-11 -8 -21 -17 -23 -14 -3 -18 3 -18 23 0 20 4 26 18 23 9 -2 17 -12 17 -23z"/>
<path d="M7800 4335 c0 -8 7 -15 15 -15 8 0 15 7 15 15 0 8 -7 15 -15 15 -8 0
-15 -7 -15 -15z"/>
<path d="M8170 4325 c0 -18 -4 -23 -15 -19 -21 8 -45 -14 -45 -41 0 -29 17
-42 58 -43 l32 -1 0 65 c0 50 -3 64 -15 64 -9 0 -15 -9 -15 -25z m0 -60 c0
-25 -23 -35 -35 -15 -10 16 2 40 20 40 9 0 15 -9 15 -25z"/>
<path d="M7947 4322 c-8 -32 7 -97 23 -100 15 -2 17 22 11 106 -2 19 -28 14
-34 -6z"/>
<path d="M7530 4264 c0 -24 5 -44 10 -44 6 0 10 14 10 30 0 18 6 33 15 36 23
9 18 22 -10 22 -23 0 -25 -4 -25 -44z"/>
<path d="M7599 4289 c-17 -34 4 -71 38 -67 14 2 28 8 30 14 2 7 -6 10 -22 7
-15 -3 -25 -1 -25 6 0 6 14 11 30 11 31 0 39 17 18 38 -19 19 -56 14 -69 -9z
m56 -9 c3 -5 -3 -10 -14 -10 -12 0 -21 5 -21 10 0 6 6 10 14 10 8 0 18 -4 21
-10z"/>
<path d="M7800 4265 c0 -33 4 -45 15 -45 11 0 15 12 15 45 0 33 -4 45 -15 45
-11 0 -15 -12 -15 -45z"/>
<path d="M7862 4298 c-7 -7 -12 -21 -12 -33 0 -41 45 -60 71 -29 11 13 9 15
-17 12 -23 -2 -29 1 -29 17 0 16 6 19 29 17 26 -3 28 -1 17 12 -16 19 -42 21
-59 4z"/>
<path d="M8022 4298 c-16 -16 -15 -53 2 -68 17 -13 63 -10 57 5 -2 6 -12 9
-22 7 -9 -2 -20 2 -24 8 -4 6 6 10 24 10 24 0 31 4 31 19 0 29 -45 42 -68 19z
m48 -18 c0 -5 -9 -10 -21 -10 -11 0 -17 5 -14 10 3 6 13 10 21 10 8 0 14 -4
14 -10z"/>
<path d="M1439 4034 c-7 -9 -13 -31 -13 -49 0 -40 19 -65 50 -65 32 0 54 26
54 65 0 18 -7 41 -16 49 -20 21 -58 20 -75 0z m67 -31 c8 -32 -6 -58 -32 -58
-20 0 -31 41 -20 71 10 25 45 16 52 -13z"/>
<path d="M1550 3986 l0 -65 33 1 c40 1 57 14 57 43 0 27 -24 49 -45 41 -11 -4
-15 1 -15 19 0 16 -6 25 -15 25 -12 0 -15 -14 -15 -64z m60 -21 c0 -16 -6 -25
-15 -25 -9 0 -15 9 -15 25 0 16 6 25 15 25 9 0 15 -9 15 -25z"/>
<path d="M2170 4027 c0 -18 -5 -23 -27 -22 -26 0 -28 -3 -28 -40 0 -39 1 -40
38 -42 l37 -1 0 64 c0 36 -4 64 -10 64 -5 0 -10 -10 -10 -23z m0 -62 c0 -25
-23 -35 -35 -15 -10 16 2 40 20 40 9 0 15 -9 15 -25z"/>
<path d="M1663 3999 c-14 -14 -6 -39 12 -39 8 0 17 -5 21 -12 5 -8 0 -9 -14
-6 -12 4 -24 2 -27 -3 -9 -14 44 -22 60 -9 21 18 19 27 -12 44 -27 15 -27 15
-5 16 13 0 20 4 17 10 -8 13 -38 13 -52 -1z"/>
<path d="M1749 3989 c-17 -34 4 -71 38 -67 14 2 28 8 30 14 2 7 -6 10 -22 7
-15 -3 -25 -1 -25 6 0 6 14 11 30 11 31 0 39 17 18 38 -19 19 -56 14 -69 -9z
m56 -9 c3 -5 -3 -10 -14 -10 -12 0 -21 5 -21 10 0 6 6 10 14 10 8 0 18 -4 21
-10z"/>
<path d="M1850 3964 c0 -24 5 -44 10 -44 6 0 10 14 10 30 0 18 6 33 15 36 23
9 18 22 -10 22 -23 0 -25 -4 -25 -44z"/>
<path d="M1927 3965 c8 -25 21 -45 28 -45 7 0 20 18 29 40 19 47 19 50 6 50
-5 0 -16 -15 -23 -32 l-14 -33 -7 33 c-4 17 -14 32 -21 32 -11 0 -11 -8 2 -45z"/>
<path d="M2022 3998 c-16 -16 -15 -53 2 -68 17 -13 63 -10 57 5 -2 6 -12 9
-22 7 -9 -2 -20 2 -24 8 -4 6 6 10 24 10 24 0 31 4 31 19 0 29 -45 42 -68 19z
m48 -18 c0 -5 -9 -10 -21 -10 -11 0 -17 5 -14 10 3 6 13 10 21 10 8 0 14 -4
14 -10z"/>
<path d="M3849 3734 c-7 -9 -13 -31 -13 -49 0 -18 6 -40 13 -49 16 -19 55 -21
70 -3 14 18 2 30 -15 16 -24 -19 -44 -2 -44 36 0 39 20 55 44 36 11 -9 16 -9
21 0 17 27 -54 40 -76 13z"/>
<path d="M3950 3685 c0 -51 3 -65 15 -65 10 0 15 11 15 35 0 24 5 35 15 35 10
0 15 -11 15 -35 0 -19 5 -35 11 -35 6 0 9 17 7 43 -3 36 -6 42 -25 41 -18 0
-23 5 -23 23 0 14 -6 23 -15 23 -12 0 -15 -14 -15 -65z"/>
<path d="M4480 3727 c0 -18 -5 -23 -27 -22 -26 0 -28 -3 -28 -40 0 -39 1 -40
38 -42 l37 -1 0 64 c0 36 -4 64 -10 64 -5 0 -10 -10 -10 -23z m0 -62 c0 -25
-23 -35 -35 -15 -10 16 2 40 20 40 9 0 15 -9 15 -25z"/>
<path d="M4586 3734 c-9 -8 -16 -30 -16 -48 0 -59 63 -89 94 -44 44 63 -26
145 -78 92z m62 -47 c2 -27 -1 -39 -13 -43 -35 -14 -61 46 -33 74 23 23 43 9
46 -31z"/>
<path d="M4701 3728 c-12 -34 -2 -108 15 -108 9 0 14 12 15 33 1 17 2 47 4 65
3 38 -21 45 -34 10z"/>
<path d="M4773 3733 c-4 -10 -11 -22 -17 -26 -8 -6 -7 -10 2 -14 6 -2 12 -20
12 -39 0 -19 5 -34 10 -34 6 0 10 15 10 34 0 19 6 37 13 39 9 4 8 8 -3 17 -11
9 -12 13 -2 17 17 7 15 23 -3 23 -9 0 -19 -8 -22 -17z"/>
<path d="M6416 3737 c-22 -16 -19 -95 5 -110 21 -13 69 -1 69 18 0 8 -4 15
-10 15 -5 0 -10 -5 -10 -11 0 -6 -10 -9 -22 -7 -19 2 -24 10 -26 41 -4 41 17
59 42 38 11 -9 16 -9 21 0 16 25 -39 38 -69 16z"/>
<path d="M8620 3685 c0 -37 4 -65 10 -65 6 0 10 14 10 30 0 25 4 30 25 30 14
0 25 5 25 10 0 6 -11 10 -25 10 -16 0 -25 6 -25 15 0 10 10 15 30 15 17 0 30
5 30 10 0 6 -18 10 -40 10 l-40 0 0 -65z"/>
<path d="M8820 3685 c0 -53 3 -65 16 -65 11 0 14 5 10 16 -3 9 -6 38 -6 65 0
27 -4 49 -10 49 -6 0 -10 -28 -10 -65z"/>
<path d="M8870 3691 c0 -33 5 -63 11 -66 15 -10 15 -7 11 63 -5 79 -22 81 -22
3z"/>
<path d="M9060 3686 c0 -37 4 -66 10 -66 6 0 10 11 10 24 0 21 6 25 33 28 29
3 32 6 32 38 0 34 -1 35 -42 38 l-43 3 0 -65z m70 24 c0 -15 -7 -20 -25 -20
-18 0 -25 5 -25 20 0 15 7 20 25 20 18 0 25 -5 25 -20z"/>
<path d="M9270 3735 c0 -9 5 -15 11 -13 6 2 11 8 11 13 0 5 -5 11 -11 13 -6 2
-11 -4 -11 -13z"/>
<path d="M9380 3727 c0 -18 -5 -23 -27 -22 -26 0 -28 -3 -28 -40 0 -39 1 -40
38 -42 l37 -1 0 64 c0 36 -4 64 -10 64 -5 0 -10 -10 -10 -23z m0 -62 c0 -25
-23 -35 -35 -15 -10 16 2 40 20 40 9 0 15 -9 15 -25z"/>
<path d="M10690 3686 c0 -37 4 -66 10 -66 6 0 10 11 10 24 0 21 6 25 33 28 29
3 32 6 32 38 0 34 -1 35 -42 38 l-43 3 0 -65z m70 24 c0 -15 -7 -20 -25 -20
-18 0 -25 5 -25 20 0 15 7 20 25 20 18 0 25 -5 25 -20z"/>
<path d="M6967 3722 c-8 -35 7 -97 26 -100 9 -2 17 1 17 7 0 6 -4 11 -10 11
-14 0 -12 47 3 54 10 5 10 7 0 12 -7 3 -13 12 -13 20 0 20 -17 17 -23 -4z"/>
<path d="M11267 3722 c-8 -35 7 -97 26 -100 9 -2 17 1 17 7 0 6 -4 11 -10 11
-14 0 -12 47 3 54 10 5 10 7 0 12 -7 3 -13 12 -13 20 0 20 -17 17 -23 -4z"/>
<path d="M11910 3725 c0 -8 -5 -15 -10 -15 -9 0 -8 -20 7 -72 5 -19 43 -25 43
-8 0 6 -4 10 -10 10 -14 0 -12 47 3 54 10 5 10 7 0 12 -7 3 -13 12 -13 20 0 8
-4 14 -10 14 -5 0 -10 -7 -10 -15z"/>
<path d="M4280 3721 c0 -5 -13 -11 -29 -14 -27 -6 -28 -8 -27 -64 1 -57 1 -58
32 -61 34 -3 60 18 50 43 -3 9 -19 15 -38 16 -22 1 -26 3 -13 6 11 3 25 9 32
15 13 11 15 68 1 68 -4 0 -8 -4 -8 -9z m-10 -41 c0 -5 -7 -10 -15 -10 -8 0
-15 5 -15 10 0 6 7 10 15 10 8 0 15 -4 15 -10z m15 -70 c-3 -5 -15 -10 -26
-10 -10 0 -19 5 -19 10 0 6 12 10 26 10 14 0 23 -4 19 -10z"/>
<path d="M4067 3703 c-12 -12 -7 -23 8 -17 8 3 20 2 27 -2 9 -6 4 -10 -17 -14
-22 -4 -30 -11 -30 -25 0 -17 7 -20 42 -21 l41 -1 -5 36 c-4 20 -11 39 -17 43
-14 10 -41 10 -49 1z m38 -53 c-3 -5 -10 -10 -16 -10 -5 0 -9 5 -9 10 0 6 7
10 16 10 8 0 12 -4 9 -10z"/>
<path d="M4160 3664 c0 -24 5 -44 10 -44 6 0 10 16 10 35 0 24 5 35 15 35 8 0
15 4 15 9 0 5 -11 9 -25 9 -23 0 -25 -4 -25 -44z"/>
<path d="M4332 3698 c-17 -17 -15 -53 3 -68 16 -13 69 -5 60 9 -3 5 -14 7 -24
4 -10 -3 -22 0 -25 6 -5 7 4 11 23 11 19 0 31 5 31 13 0 18 -21 37 -40 37 -9
0 -21 -5 -28 -12z m43 -18 c3 -5 -3 -10 -15 -10 -12 0 -18 5 -15 10 3 6 10 10
15 10 5 0 12 -4 15 -10z"/>
<path d="M6510 3676 c0 -39 14 -54 53 -54 25 0 27 3 27 44 0 24 -4 44 -10 44
-5 0 -10 -16 -10 -35 0 -24 -5 -35 -15 -35 -10 0 -15 11 -15 35 0 24 -5 35
-15 35 -10 0 -15 -10 -15 -34z"/>
<path d="M6620 3664 c0 -24 5 -44 10 -44 6 0 10 14 10 30 0 18 6 33 15 36 23
9 18 22 -10 22 -23 0 -25 -4 -25 -44z"/>
<path d="M6690 3664 c0 -24 5 -44 10 -44 6 0 10 14 10 30 0 18 6 33 15 36 23
9 18 22 -10 22 -23 0 -25 -4 -25 -44z"/>
<path d="M6759 3689 c-17 -34 4 -71 38 -67 14 2 28 8 30 14 2 7 -6 10 -22 7
-15 -3 -25 -1 -25 6 0 6 14 11 30 11 31 0 39 17 18 38 -19 19 -56 14 -69 -9z
m56 -9 c3 -5 -3 -10 -14 -10 -12 0 -21 5 -21 10 0 6 6 10 14 10 8 0 18 -4 21
-10z"/>
<path d="M6860 3664 c0 -51 17 -60 22 -11 2 20 8 32 18 32 10 0 16 -12 18 -32
5 -49 24 -40 20 10 -3 41 -4 42 -40 44 l-38 1 0 -44z"/>
<path d="M8710 3676 c0 -39 14 -54 53 -54 25 0 27 3 27 44 0 24 -4 44 -10 44
-5 0 -10 -16 -10 -35 0 -24 -5 -35 -15 -35 -10 0 -15 11 -15 35 0 24 -5 35
-15 35 -10 0 -15 -10 -15 -34z"/>
<path d="M8928 3659 c14 -43 14 -51 2 -59 -8 -5 -11 -12 -7 -17 13 -13 40 11
52 48 24 68 26 79 17 79 -4 0 -15 -15 -24 -32 l-15 -33 -7 33 c-4 17 -14 32
-21 32 -11 0 -10 -10 3 -51z"/>
<path d="M9175 3700 c-7 -11 0 -13 28 -11 25 3 21 -17 -5 -21 -15 -2 -23 -10
-23 -23 0 -16 7 -20 38 -21 33 -1 37 2 37 23 0 38 -18 63 -45 63 -13 0 -27 -4
-30 -10z m45 -50 c0 -5 -7 -10 -15 -10 -8 0 -15 5 -15 10 0 6 7 10 15 10 8 0
15 -4 15 -10z"/>
<path d="M9270 3665 c0 -33 4 -45 15 -45 11 0 15 12 15 45 0 33 -4 45 -15 45
-11 0 -15 -12 -15 -45z"/>
<path d="M10799 3689 c-17 -34 4 -71 38 -67 14 2 28 8 30 14 2 7 -6 10 -22 7
-15 -3 -25 -1 -25 6 0 6 14 11 30 11 31 0 39 17 18 38 -19 19 -56 14 -69 -9z
m56 -9 c3 -5 -3 -10 -14 -10 -12 0 -21 5 -21 10 0 6 6 10 14 10 8 0 18 -4 21
-10z"/>
<path d="M10900 3664 c0 -24 5 -44 10 -44 6 0 10 14 10 30 0 18 6 33 15 36 23
9 18 22 -10 22 -23 0 -25 -4 -25 -44z"/>
<path d="M10970 3689 c-18 -34 2 -71 37 -67 14 2 28 9 31 16 3 9 -3 11 -22 6
-23 -5 -26 -3 -26 21 0 24 3 26 26 21 19 -5 25 -3 22 6 -8 23 -55 21 -68 -3z"/>
<path d="M11072 3698 c-17 -17 -15 -53 3 -68 16 -13 69 -5 60 9 -3 5 -14 7
-24 4 -10 -3 -22 0 -25 6 -5 7 4 11 23 11 19 0 31 5 31 13 0 18 -21 37 -40 37
-9 0 -21 -5 -28 -12z m43 -18 c3 -5 -3 -10 -15 -10 -12 0 -18 5 -15 10 3 6 10
10 15 10 5 0 12 -4 15 -10z"/>
<path d="M11160 3663 c0 -50 17 -59 22 -10 2 20 8 32 18 32 10 0 16 -12 18
-32 2 -18 7 -33 13 -33 11 0 12 60 1 77 -4 6 -22 11 -40 11 -31 -1 -32 -2 -32
-45z"/>
<path d="M11382 3698 c-17 -17 -15 -53 3 -68 16 -13 65 -6 65 10 0 6 -11 8
-25 4 -22 -5 -25 -3 -25 21 0 24 3 26 25 21 27 -7 35 8 9 18 -24 9 -39 7 -52
-6z"/>
<path d="M11472 3698 c-7 -7 -12 -21 -12 -33 0 -47 62 -63 81 -21 22 47 -33
90 -69 54z m48 -33 c0 -16 -6 -25 -15 -25 -9 0 -15 9 -15 25 0 16 6 25 15 25
9 0 15 -9 15 -25z"/>
<path d="M11570 3664 c0 -24 5 -44 10 -44 6 0 10 16 10 35 0 24 5 35 15 35 8
0 15 4 15 9 0 5 -11 9 -25 9 -23 0 -25 -4 -25 -44z"/>
<path d="M11640 3664 c0 -24 5 -44 10 -44 6 0 10 14 10 30 0 18 6 33 15 36 23
9 18 22 -10 22 -23 0 -25 -4 -25 -44z"/>
<path d="M11709 3689 c-17 -34 4 -71 38 -67 14 2 28 8 30 14 2 7 -6 10 -22 7
-15 -3 -25 -1 -25 6 0 6 14 11 30 11 31 0 39 17 18 38 -19 19 -56 14 -69 -9z
m51 -9 c0 -5 -7 -10 -15 -10 -8 0 -15 5 -15 10 0 6 7 10 15 10 8 0 15 -4 15
-10z"/>
<path d="M11812 3698 c-17 -17 -15 -53 3 -68 16 -13 65 -6 65 10 0 6 -11 8
-25 4 -22 -5 -25 -3 -25 21 0 24 3 26 25 21 27 -7 35 8 9 18 -24 9 -39 7 -52
-6z"/>
<path d="M737 3132 c-22 -25 -21 -75 1 -95 22 -20 55 -22 71 -4 14 18 2 30
-15 16 -24 -19 -44 -2 -44 36 0 38 20 55 44 36 17 -14 29 -2 15 16 -16 19 -53
16 -72 -5z"/>
<path d="M840 3085 c0 -67 16 -91 22 -32 2 20 8 32 18 32 10 0 16 -12 18 -32
5 -49 24 -40 20 10 -3 39 -5 42 -30 42 -23 -1 -28 4 -28 22 0 13 -4 23 -10 23
-6 0 -10 -28 -10 -65z"/>
<path d="M1370 3124 c0 -21 -3 -24 -20 -19 -26 8 -50 -11 -50 -40 0 -30 18
-42 58 -42 l32 0 0 64 c0 35 -4 63 -10 63 -5 0 -10 -12 -10 -26z m-5 -59 c0
-11 -8 -21 -17 -23 -14 -3 -18 3 -18 23 0 20 4 26 18 23 9 -2 17 -12 17 -23z"/>
<path d="M1469 3134 c-7 -9 -13 -31 -13 -49 0 -40 19 -65 50 -65 32 0 54 26
54 65 0 18 -7 41 -16 49 -20 21 -58 20 -75 0z m67 -31 c8 -32 -6 -58 -32 -58
-20 0 -31 41 -20 71 10 25 45 16 52 -13z"/>
<path d="M1593 3133 c-4 -10 -11 -22 -17 -26 -8 -6 -7 -10 2 -14 6 -2 12 -20
12 -39 0 -19 5 -34 10 -34 6 0 10 15 10 34 0 19 6 37 13 39 9 4 8 8 -3 17 -11
9 -12 13 -2 17 17 7 15 23 -3 23 -9 0 -19 -8 -22 -17z"/>
<path d="M1651 3128 c-12 -34 -2 -108 15 -108 9 0 14 12 15 33 1 17 2 47 4 65
3 38 -21 45 -34 10z"/>
<path d="M4182 3113 c1 -37 1 -37 5 -6 4 27 9 32 36 36 31 4 31 4 -5 5 -38 2
-38 2 -36 -35z"/>
<path d="M4289 3143 c0 -5 -3 -20 -5 -35 -4 -24 -2 -27 23 -25 24 2 28 -2 28
-23 0 -21 -4 -25 -30 -23 -29 1 -29 1 -7 -10 17 -8 29 -8 40 0 37 23 21 73
-23 73 -34 0 -22 38 14 43 23 4 22 4 -6 6 -18 0 -33 -2 -34 -6z"/>
<path d="M4399 3133 c-13 -16 -12 -17 4 -4 16 12 17 9 17 -42 0 -44 -3 -56
-17 -60 -10 -3 2 -5 27 -5 25 0 37 2 28 5 -15 4 -18 16 -18 64 0 63 -14 77
-41 42z"/>
<path d="M6684 3142 c-32 -21 -27 -107 7 -117 31 -10 49 12 49 59 0 55 -24 80
-56 58z m41 -57 c0 -43 -3 -50 -20 -50 -27 0 -42 46 -27 80 8 17 19 25 30 23
13 -3 17 -14 17 -53z"/>
<path d="M8929 3133 c-13 -16 -12 -17 4 -4 15 12 17 11 17 -13 0 -15 4 -25 9
-22 12 8 8 49 -5 53 -6 2 -17 -4 -25 -14z"/>
<path d="M9036 3141 c-4 -5 3 -7 15 -4 19 5 38 -9 39 -29 0 -5 -16 -26 -36
-48 l-36 -40 43 2 c38 1 39 2 11 5 l-33 4 31 35 c33 38 37 53 18 72 -14 14
-44 16 -52 3z"/>
<path d="M11108 3140 c29 -12 28 -64 -2 -100 l-21 -25 28 24 c42 38 34 112
-12 110 -10 0 -7 -4 7 -9z"/>
<path d="M11171 3128 c1 -17 2 -19 6 -5 3 11 14 17 34 17 17 0 28 -4 25 -8
-12 -20 -46 -116 -38 -107 5 6 17 30 27 55 9 25 19 51 22 58 4 8 -7 12 -36 12
-36 0 -41 -3 -40 -22z"/>
<path d="M11368 3140 c29 -12 28 -64 -1 -97 -26 -29 -14 -30 13 -1 35 38 22
109 -19 107 -10 0 -7 -4 7 -9z"/>
<path d="M11450 3146 c0 -2 7 -7 16 -10 8 -3 12 -2 9 4 -6 10 -25 14 -25 6z"/>
<path d="M11066 3124 c-8 -22 11 -54 32 -53 14 0 14 2 2 6 -21 8 -30 25 -24
46 7 21 -2 23 -10 1z"/>
<path d="M11332 3110 c0 -19 2 -27 5 -17 2 9 2 25 0 35 -3 9 -5 1 -5 -18z"/>
<path d="M1160 3120 c-8 -5 -23 -11 -33 -14 -14 -5 -17 -14 -14 -46 2 -22 0
-43 -5 -46 -16 -10 14 -34 42 -34 58 0 64 59 6 61 -21 1 -24 3 -11 6 29 7 40
20 41 53 2 32 -2 34 -26 20z m0 -40 c0 -5 -7 -10 -15 -10 -8 0 -15 5 -15 10 0
6 7 10 15 10 8 0 15 -4 15 -10z m10 -70 c0 -5 -11 -10 -25 -10 -14 0 -25 5
-25 10 0 6 11 10 25 10 14 0 25 -4 25 -10z"/>
<path d="M11431 3114 c0 -11 3 -14 6 -6 3 7 2 16 -1 19 -3 4 -6 -2 -5 -13z"/>
<path d="M945 3100 c-7 -11 0 -13 28 -11 25 3 21 -17 -5 -21 -15 -2 -23 -10
-23 -23 0 -17 7 -20 42 -22 42 -1 42 -1 36 30 -3 18 -10 38 -16 45 -11 14 -53
16 -62 2z m45 -50 c0 -5 -7 -10 -15 -10 -8 0 -15 5 -15 10 0 6 7 10 15 10 8 0
15 -4 15 -10z"/>
<path d="M1040 3064 c0 -32 4 -44 15 -44 10 0 15 11 15 35 0 24 5 35 15 35 29
0 15 17 -15 18 -29 1 -30 -1 -30 -44z"/>
<path d="M1212 3098 c-16 -16 -15 -53 2 -68 17 -14 58 -10 63 6 2 7 -6 10 -22
7 -15 -3 -25 -1 -25 6 0 6 14 11 30 11 33 0 35 3 20 31 -12 21 -50 25 -68 7z
m48 -18 c0 -5 -7 -10 -15 -10 -8 0 -15 5 -15 10 0 6 7 10 15 10 8 0 15 -4 15
-10z"/>
<path d="M4218 3090 c34 -14 27 -55 -10 -55 -14 1 -24 -3 -22 -7 3 -4 13 -8
23 -8 46 0 56 73 11 77 l-25 3 23 -10z"/>
<path d="M11460 3090 c-9 -6 -10 -10 -3 -10 6 0 15 5 18 10 8 12 4 12 -15 0z"/>
<path d="M11480 3059 c-12 -16 -21 -32 -18 -34 2 -2 13 12 26 31 28 42 21 45
-8 3z"/>
<path d="M11524 3076 c-10 -26 0 -51 21 -51 16 0 20 7 20 30 0 33 -30 49 -41
21z m36 -21 c0 -16 -6 -25 -15 -25 -9 0 -15 9 -15 25 0 16 6 25 15 25 9 0 15
-9 15 -25z"/>
<path d="M8950 3056 c0 -15 -7 -26 -17 -29 -10 -3 2 -5 27 -5 25 0 37 2 28 5
-17 4 -22 15 -19 41 1 6 -3 12 -9 12 -5 0 -10 -11 -10 -24z"/>
<path d="M737 2532 c-22 -25 -21 -75 1 -95 22 -20 55 -22 71 -4 14 18 2 30
-15 16 -24 -19 -44 -2 -44 36 0 38 20 55 44 36 17 -14 29 -2 15 16 -16 19 -53
16 -72 -5z"/>
<path d="M4292 2538 c-16 -16 -16 -90 0 -106 7 -7 19 -12 28 -11 9 0 6 4 -7 9
-19 8 -23 17 -23 55 0 38 4 47 23 55 13 5 16 9 7 9 -9 1 -21 -4 -28 -11z"/>
<path d="M6570 2535 c-11 -13 -10 -14 4 -9 13 5 16 -2 16 -44 0 -40 -4 -52
-17 -55 -10 -3 2 -5 27 -5 25 0 37 2 28 5 -15 4 -18 16 -18 64 0 62 -13 76
-40 44z"/>
<path d="M6674 2528 l-19 -23 23 19 22 19 0 -56 c0 -50 -2 -56 -22 -60 -13 -2
0 -4 27 -4 28 0 40 2 29 4 -18 3 -21 10 -20 46 3 47 -3 77 -14 77 -4 0 -15
-10 -26 -22z"/>
<path d="M6787 2500 l-28 -50 30 0 c18 0 34 -7 40 -17 9 -16 10 -16 11 -1 0 9
6 19 13 21 10 4 10 6 0 6 -9 1 -13 17 -13 46 0 60 -18 58 -53 -5z m41 -2 c-2
-26 -8 -34 -27 -36 -13 -2 -21 0 -19 5 34 72 51 84 46 31z"/>
<path d="M8982 2538 c-7 -7 -12 -30 -12 -53 0 -43 14 -65 40 -64 9 0 6 4 -7 9
-19 8 -23 17 -23 55 0 50 18 67 46 44 12 -10 15 -25 11 -57 -3 -28 -2 -39 4
-31 33 53 -19 137 -59 97z"/>
<path d="M11020 2535 c-15 -18 1 -20 18 -3 9 9 12 -1 12 -44 0 -51 -2 -57 -22
-61 -13 -2 -3 -4 22 -4 25 -1 37 1 28 4 -15 4 -18 16 -18 64 0 61 -13 76 -40
44z"/>
<path d="M11132 2538 c-7 -7 -12 -17 -12 -22 0 -6 5 -3 11 7 5 9 16 17 24 17
8 0 19 -8 24 -17 6 -10 11 -13 11 -7 0 13 -21 34 -35 34 -6 0 -16 -5 -23 -12z"/>
<path d="M11243 2543 c-7 -2 -13 -9 -13 -15 0 -6 6 -6 15 2 27 22 45 4 45 -45
0 -38 -4 -47 -22 -55 -14 -5 -17 -9 -7 -9 25 -1 39 21 39 64 0 54 -19 74 -57
58z"/>
<path d="M11396 2541 c-3 -4 6 -6 19 -3 19 3 25 -1 31 -22 3 -15 4 -41 0 -59
-4 -23 -3 -28 4 -17 13 20 13 66 0 91 -11 19 -44 26 -54 10z"/>
<path d="M11496 2542 c-3 -6 2 -9 12 -8 11 1 17 -6 17 -19 0 -13 -6 -19 -19
-18 -13 1 -15 -2 -7 -10 18 -18 49 18 35 40 -13 21 -30 27 -38 15z"/>
<path d="M1293 2520 c-7 -10 -11 -25 -9 -32 3 -7 7 -25 10 -40 4 -19 13 -28
26 -28 11 0 20 5 20 10 0 6 -4 10 -10 10 -14 0 -12 47 3 54 10 5 10 7 0 12 -7
3 -13 12 -13 20 0 20 -13 17 -27 -6z"/>
<path d="M4345 2485 c0 -29 3 -48 7 -42 4 7 8 26 8 42 0 17 -4 35 -8 42 -4 6
-7 -13 -7 -42z"/>
<path d="M11383 2485 c0 -22 2 -30 4 -17 2 12 2 30 0 40 -3 9 -5 -1 -4 -23z"/>
<path d="M842 2468 c3 -42 4 -43 41 -45 l37 -1 0 44 c0 51 -17 60 -22 12 -2
-22 -9 -34 -20 -36 -15 -3 -18 4 -18 32 0 20 -5 36 -11 36 -6 0 -9 -17 -7 -42z"/>
<path d="M940 2464 c0 -32 4 -44 15 -44 10 0 15 11 15 35 0 24 5 35 15 35 29
0 15 17 -15 18 -29 1 -30 -1 -30 -44z"/>
<path d="M1010 2464 c0 -32 4 -44 15 -44 10 0 15 11 15 35 0 24 5 35 15 35 29
0 15 17 -15 18 -29 1 -30 -1 -30 -44z"/>
<path d="M1092 2498 c-16 -16 -15 -53 2 -68 17 -13 63 -10 57 5 -2 6 -12 9
-22 7 -9 -2 -20 2 -24 8 -4 6 6 10 24 10 24 0 31 4 31 19 0 29 -45 42 -68 19z
m48 -18 c0 -5 -9 -10 -21 -10 -11 0 -17 5 -14 10 3 6 13 10 21 10 8 0 14 -4
14 -10z"/>
<path d="M1180 2465 c0 -33 4 -45 15 -45 10 0 15 11 15 35 0 24 5 35 15 35 10
0 15 -11 15 -35 0 -19 5 -35 11 -35 6 0 9 17 7 43 -3 41 -4 42 -40 44 l-38 2
0 -44z"/>
<path d="M11221 2489 c0 -13 4 -33 9 -44 7 -14 8 -8 3 20 -7 46 -13 59 -12 24z"/>
<path d="M11110 2484 c0 -8 5 -12 10 -9 6 4 8 11 5 16 -9 14 -15 11 -15 -7z"/>
<path d="M11592 2484 c9 -3 19 -13 22 -22 3 -12 4 -12 3 3 -1 12 -10 21 -22
22 -15 1 -15 0 -3 -3z"/>
<path d="M11181 2457 c-1 -27 -31 -34 -49 -11 -8 10 -12 13 -10 5 2 -8 12 -19
21 -25 20 -13 53 14 44 36 -4 9 -6 7 -6 -5z"/>
<path d="M11571 2454 c0 -11 3 -14 6 -6 3 7 2 16 -1 19 -3 4 -6 -2 -5 -13z"/>
<path d="M11330 2430 c0 -5 5 -10 10 -10 6 0 10 5 10 10 0 6 -4 10 -10 10 -5
0 -10 -4 -10 -10z"/>
<path d="M11398 2428 c5 -5 16 -8 23 -6 8 3 3 7 -10 11 -17 4 -21 3 -13 -5z"/>
<path d="M11595 2430 c-16 -7 -17 -9 -3 -9 9 -1 20 4 23 9 7 11 7 11 -20 0z"/>
<path d="M730 1885 c0 -37 4 -65 10 -65 6 0 10 14 10 30 0 25 4 30 25 30 14 0
25 5 25 10 0 6 -11 10 -25 10 -16 0 -25 6 -25 15 0 10 10 15 30 15 17 0 30 5
30 10 0 6 -18 10 -40 10 l-40 0 0 -65z"/>
<path d="M930 1885 c0 -53 3 -65 16 -65 11 0 14 5 10 16 -3 9 -6 38 -6 65 0
27 -4 49 -10 49 -6 0 -10 -28 -10 -65z"/>
<path d="M980 1891 c0 -33 5 -63 11 -66 15 -10 15 -7 11 63 -5 79 -22 81 -22
3z"/>
<path d="M1170 1886 c0 -37 4 -66 10 -66 6 0 10 11 10 24 0 21 6 25 33 28 29
3 32 6 32 38 0 34 -1 35 -42 38 l-43 3 0 -65z m70 24 c0 -15 -7 -20 -25 -20
-18 0 -25 5 -25 20 0 15 7 20 25 20 18 0 25 -5 25 -20z"/>
<path d="M1380 1936 c0 -9 7 -16 16 -16 17 0 14 22 -4 28 -7 2 -12 -3 -12 -12z"/>
<path d="M1490 1927 c0 -18 -5 -23 -27 -22 -26 0 -28 -3 -28 -40 0 -39 1 -40
38 -42 l37 -1 0 64 c0 36 -4 64 -10 64 -5 0 -10 -10 -10 -23z m0 -62 c0 -25
-23 -35 -35 -15 -10 16 2 40 20 40 9 0 15 -9 15 -25z"/>
<path d="M4292 1938 c-16 -16 -16 -90 0 -106 7 -7 19 -12 28 -11 9 0 6 4 -7 9
-19 8 -23 17 -23 55 0 38 4 47 23 55 13 5 16 9 7 9 -9 1 -21 -4 -28 -11z"/>
<path d="M6684 1942 c-32 -21 -27 -107 7 -117 31 -10 49 12 49 59 0 55 -24 80
-56 58z m41 -57 c0 -43 -3 -50 -20 -50 -27 0 -42 46 -27 80 8 17 19 25 30 23
13 -3 17 -14 17 -53z"/>
<path d="M8815 1941 c-3 -6 7 -9 22 -8 36 3 46 -31 12 -40 l-23 -6 23 -9 c32
-11 24 -43 -12 -43 -16 1 -23 -3 -18 -8 5 -5 21 -7 35 -3 19 5 26 13 26 31 0
14 -5 25 -12 25 -9 0 -9 3 0 12 17 17 15 45 -4 52 -23 9 -42 7 -49 -3z"/>
<path d="M8927 1943 c-14 -13 -7 -25 8 -13 18 15 45 6 45 -14 0 -9 -13 -31
-30 -49 -16 -19 -30 -37 -30 -41 0 -3 19 -5 43 -5 l42 2 -38 6 -39 6 31 29
c33 31 39 54 19 74 -13 13 -41 16 -51 5z"/>
<path d="M9028 1925 c-13 -29 3 -55 33 -55 23 0 24 -8 2 -32 -9 -10 -11 -18
-6 -18 17 0 43 47 43 78 0 53 -51 72 -72 27z m58 -22 c1 -28 -1 -30 -20 -24
-13 5 -22 19 -24 35 -3 24 0 27 20 24 18 -2 23 -10 24 -35z"/>
<path d="M9138 1915 c-2 -19 0 -35 4 -35 4 0 8 13 8 29 0 25 5 30 28 34 26 4
26 4 -4 6 -29 1 -32 -2 -36 -34z"/>
<path d="M11020 1935 c-15 -18 1 -20 18 -3 9 9 12 -1 12 -44 0 -51 -2 -57 -22
-61 -13 -2 -3 -4 22 -4 25 -1 37 1 28 4 -15 4 -18 16 -18 64 0 61 -13 76 -40
44z"/>
<path d="M11132 1938 c-7 -7 -12 -17 -12 -22 0 -6 5 -3 11 7 14 24 38 21 49
-5 5 -14 9 -17 9 -7 1 17 -18 39 -34 39 -6 0 -16 -5 -23 -12z"/>
<path d="M11268 1940 c18 -8 22 -17 22 -55 0 -33 -5 -47 -16 -52 -21 -8 -44
22 -44 56 0 13 -3 22 -6 18 -14 -13 7 -76 27 -82 31 -10 49 12 49 59 0 44 -14
66 -39 65 -10 0 -7 -4 7 -9z"/>
<path d="M11390 1931 c-5 -11 -9 -35 -9 -53 1 -26 3 -28 6 -8 9 59 14 70 32
70 21 0 31 -19 31 -58 0 -38 -14 -56 -39 -49 -12 3 -19 1 -15 -4 9 -16 43 -10
54 10 23 44 5 111 -30 111 -11 0 -24 -9 -30 -19z"/>
<path d="M11496 1942 c-3 -6 2 -9 12 -8 11 1 17 -6 17 -19 0 -13 -6 -19 -19
-18 -13 1 -15 -2 -7 -10 18 -18 49 18 35 40 -13 21 -30 27 -38 15z"/>
<path d="M4345 1885 c0 -29 3 -48 7 -42 4 7 8 26 8 42 0 17 -4 35 -8 42 -4 6
-7 -13 -7 -42z"/>
<path d="M820 1878 c0 -45 10 -57 48 -56 31 1 32 2 32 45 0 50 -17 59 -22 11
-2 -21 -8 -33 -18 -33 -10 0 -16 12 -18 33 -2 17 -7 32 -13 32 -5 0 -9 -15 -9
-32z"/>
<path d="M1038 1859 c14 -43 14 -51 2 -59 -8 -5 -11 -12 -7 -17 4 -4 15 -3 24
3 15 9 25 32 47 102 11 35 -12 26 -27 -10 l-13 -33 -12 33 c-18 53 -31 36 -14
-19z"/>
<path d="M1285 1900 c-7 -11 0 -13 28 -11 25 3 21 -17 -5 -21 -15 -2 -23 -10
-23 -23 0 -16 7 -20 38 -21 33 -1 37 2 37 23 0 38 -18 63 -45 63 -13 0 -27 -4
-30 -10z m45 -50 c0 -5 -7 -10 -15 -10 -8 0 -15 5 -15 10 0 6 7 10 15 10 8 0
15 -4 15 -10z"/>
<path d="M1380 1865 c0 -33 4 -45 15 -45 11 0 15 12 15 45 0 33 -4 45 -15 45
-11 0 -15 -12 -15 -45z"/>
<path d="M9172 1893 c20 -5 30 -27 21 -49 -4 -12 -14 -14 -37 -11 -29 6 -29 5
-8 -5 27 -14 55 -1 60 26 5 22 -16 46 -37 45 -14 -1 -14 -2 1 -6z"/>
<path d="M11110 1885 c0 -8 2 -15 4 -15 2 0 6 7 10 15 3 8 1 15 -4 15 -6 0
-10 -7 -10 -15z"/>
<path d="M11580 1886 c0 -2 9 -6 20 -9 11 -3 18 -1 14 4 -5 9 -34 13 -34 5z"/>
<path d="M11181 1862 c-1 -31 -30 -40 -49 -16 -8 10 -12 13 -10 5 2 -8 12 -19
21 -25 21 -14 51 13 44 40 -4 16 -5 15 -6 -4z"/>
<path d="M11571 1854 c0 -11 3 -14 6 -6 3 7 2 16 -1 19 -3 4 -6 -2 -5 -13z"/>
<path d="M11330 1830 c0 -5 5 -10 10 -10 6 0 10 5 10 10 0 6 -4 10 -10 10 -5
0 -10 -4 -10 -10z"/>
<path d="M11595 1830 c-16 -7 -17 -9 -3 -9 9 -1 20 4 23 9 7 11 7 11 -20 0z"/>
<path d="M730 1286 c0 -37 4 -66 10 -66 6 0 10 11 10 24 0 19 6 25 26 28 63 7
55 71 -10 76 l-36 3 0 -65z m60 24 c0 -13 -7 -20 -20 -20 -13 0 -20 7 -20 20
0 13 7 20 20 20 13 0 20 -7 20 -20z"/>
<path d="M4026 1335 c-11 -8 -15 -15 -10 -15 6 0 15 5 22 12 9 9 12 -1 12 -44
0 -51 -2 -57 -22 -61 -13 -2 -3 -4 22 -4 25 -1 37 1 28 4 -15 4 -18 16 -18 64
0 63 -4 67 -34 44z"/>
<path d="M4132 1338 c-16 -16 -16 -90 0 -106 42 -42 90 39 58 99 -12 21 -40
25 -58 7z m52 -14 c18 -48 -5 -103 -39 -90 -15 6 -22 86 -8 99 12 13 41 7 47
-9z"/>
<path d="M4242 1338 c-7 -7 -12 -16 -12 -22 0 -5 6 -1 14 9 23 32 46 12 46
-40 0 -53 -23 -71 -48 -39 -8 10 -12 13 -10 5 7 -25 35 -36 52 -22 31 26 16
121 -19 121 -6 0 -16 -5 -23 -12z"/>
<path d="M4428 1340 c18 -8 22 -17 22 -55 0 -38 -4 -47 -22 -55 -14 -5 -17 -9
-7 -9 25 -1 39 21 39 64 0 43 -14 65 -39 64 -10 0 -7 -4 7 -9z"/>
<path d="M4494 1336 c-10 -26 0 -51 21 -51 16 0 20 7 20 30 0 33 -30 49 -41
21z m36 -21 c0 -16 -6 -25 -15 -25 -9 0 -15 9 -15 25 0 16 6 25 15 25 9 0 15
-9 15 -25z"/>
<path d="M4581 1327 c-13 -21 -12 -21 5 -5 10 10 16 20 13 22 -3 3 -11 -5 -18
-17z"/>
<path d="M6409 1333 c-13 -16 -12 -17 4 -4 11 9 17 10 17 2 0 -6 4 -11 10 -11
5 0 7 7 4 15 -8 20 -18 19 -35 -2z"/>
<path d="M6523 1343 c-7 -2 -13 -9 -13 -15 0 -6 6 -6 15 2 27 22 45 4 45 -45
0 -38 -4 -47 -22 -55 -14 -5 -17 -9 -7 -9 25 -1 39 21 39 64 0 54 -19 74 -57
58z"/>
<path d="M6626 1341 c-4 -5 3 -7 15 -4 25 7 39 -11 39 -52 0 -41 -14 -59 -39
-52 -12 3 -19 1 -15 -4 9 -16 43 -10 54 10 23 44 5 111 -30 111 -10 0 -21 -4
-24 -9z"/>
<path d="M6780 1336 c-21 -27 -22 -71 -1 -97 16 -19 23 -22 37 -13 10 6 19 17
21 25 3 8 0 7 -7 -3 -15 -24 -37 -23 -50 2 -11 21 -7 67 9 83 15 15 41 0 42
-25 1 -18 2 -19 6 -5 5 20 -13 47 -32 47 -7 0 -18 -7 -25 -14z"/>
<path d="M6890 1346 c0 -2 7 -7 16 -10 8 -3 12 -2 9 4 -6 10 -25 14 -25 6z"/>
<path d="M8772 1341 c-18 -11 -11 -66 8 -67 10 -1 10 1 2 3 -22 8 -10 58 13
58 29 0 30 -62 2 -92 -11 -13 -16 -23 -10 -23 13 0 38 37 45 67 6 24 -16 63
-35 63 -7 0 -18 -4 -25 -9z"/>
<path d="M8870 1330 c-14 -25 3 -61 28 -59 15 1 15 2 0 6 -36 9 -31 66 6 61
30 -4 31 -64 2 -98 l-21 -25 28 24 c43 39 34 111 -15 111 -9 0 -22 -9 -28 -20z"/>
<path d="M9041 1324 c-34 -44 -23 -105 19 -103 9 0 5 4 -8 10 -20 8 -23 14
-19 45 3 19 13 44 23 55 9 10 14 19 11 19 -3 0 -15 -12 -26 -26z"/>
<path d="M9136 1342 c-3 -6 2 -9 12 -8 11 1 17 -6 17 -19 0 -13 -6 -19 -19
-18 -13 1 -15 -2 -7 -10 18 -18 49 18 35 40 -13 21 -30 27 -38 15z"/>
<path d="M11108 1339 c20 -8 23 -14 19 -45 -3 -19 -13 -45 -23 -57 -16 -19
-15 -18 9 2 42 38 34 112 -12 110 -10 0 -6 -4 7 -10z"/>
<path d="M11182 1338 c-24 -24 -6 -69 28 -67 9 0 6 4 -8 10 -33 13 -27 54 8
54 21 0 25 -5 26 -33 1 -18 -8 -45 -18 -60 l-20 -27 26 28 c40 43 31 107 -14
107 -9 0 -21 -5 -28 -12z"/>
<path d="M11358 1343 c17 -2 32 -5 32 -6 0 -1 -9 -26 -20 -56 -12 -29 -19 -55
-17 -57 4 -5 47 102 47 117 0 5 -17 8 -37 7 -37 -1 -37 -1 -5 -5z"/>
<path d="M11450 1346 c0 -2 7 -7 16 -10 8 -3 12 -2 9 4 -6 10 -25 14 -25 6z"/>
<path d="M1310 1325 c0 -8 -5 -15 -10 -15 -9 0 -8 -20 7 -72 5 -19 43 -25 43
-8 0 6 -4 10 -10 10 -14 0 -12 47 3 54 10 5 10 7 0 12 -7 3 -13 12 -13 20 0 8
-4 14 -10 14 -5 0 -10 -7 -10 -15z"/>
<path d="M1937 1322 c-8 -35 7 -97 26 -100 9 -2 17 1 17 7 0 6 -4 11 -10 11
-14 0 -12 47 3 54 10 5 10 7 0 12 -7 3 -13 12 -13 20 0 20 -17 17 -23 -4z"/>
<path d="M11066 1324 c-8 -22 11 -54 32 -53 14 0 14 2 2 6 -21 8 -30 25 -24
46 7 21 -2 23 -10 1z"/>
<path d="M6871 1314 c0 -11 3 -14 6 -6 3 7 2 16 -1 19 -3 4 -6 -2 -5 -13z"/>
<path d="M11320 1319 c0 -5 5 -7 10 -4 6 3 10 8 10 11 0 2 -4 4 -10 4 -5 0
-10 -5 -10 -11z"/>
<path d="M11431 1314 c0 -11 3 -14 6 -6 3 7 2 16 -1 19 -3 4 -6 -2 -5 -13z"/>
<path d="M6613 1285 c0 -22 2 -30 4 -17 2 12 2 30 0 40 -3 9 -5 -1 -4 -23z"/>
<path d="M6930 1274 c-18 -25 -30 -47 -28 -49 1 -2 18 19 36 46 41 62 34 65
-8 3z"/>
<path d="M11490 1274 c-18 -25 -30 -47 -28 -49 1 -2 18 19 36 46 41 62 34 65
-8 3z"/>
<path d="M842 1298 c-16 -16 -15 -53 2 -68 17 -13 63 -10 57 5 -2 6 -12 9 -22
7 -9 -2 -20 2 -24 8 -4 6 6 10 24 10 24 0 31 4 31 19 0 29 -45 42 -68 19z m43
-18 c3 -5 -3 -10 -15 -10 -12 0 -18 5 -15 10 3 6 10 10 15 10 5 0 12 -4 15
-10z"/>
<path d="M930 1264 c0 -32 4 -44 15 -44 10 0 15 11 15 35 0 24 5 35 15 35 29
0 15 17 -15 18 -29 1 -30 -1 -30 -44z"/>
<path d="M1012 1298 c-7 -7 -12 -21 -12 -33 0 -41 45 -60 71 -29 11 13 9 15
-17 12 -23 -2 -29 1 -29 17 0 16 6 19 29 17 26 -3 28 -1 17 12 -16 19 -42 21
-59 4z"/>
<path d="M1102 1298 c-17 -17 -15 -53 3 -68 16 -13 69 -5 60 9 -3 5 -14 7 -24
4 -10 -3 -22 0 -25 6 -5 7 4 11 23 11 24 0 31 4 31 19 0 29 -45 42 -68 19z
m48 -18 c0 -5 -9 -10 -21 -10 -11 0 -17 5 -14 10 3 6 13 10 21 10 8 0 14 -4
14 -10z"/>
<path d="M1190 1265 c0 -33 4 -45 15 -45 10 0 15 11 15 35 0 24 5 35 15 35 10
0 15 -11 15 -35 0 -19 5 -35 11 -35 6 0 9 17 7 43 -3 41 -4 42 -40 44 l-38 2
0 -44z"/>
<path d="M1422 1298 c-6 -6 -12 -21 -12 -33 0 -42 45 -60 71 -29 12 15 10 16
-20 9 -30 -6 -32 -5 -29 17 2 17 9 22 26 20 15 -1 22 2 20 10 -6 18 -41 21
-56 6z"/>
<path d="M1510 1296 c-28 -35 11 -93 48 -70 35 22 22 84 -18 84 -10 0 -23 -7
-30 -14z m45 -31 c0 -11 -8 -21 -17 -23 -14 -3 -18 3 -18 23 0 20 4 26 18 23
9 -2 17 -12 17 -23z"/>
<path d="M1600 1265 c0 -33 4 -45 15 -45 10 0 15 11 15 35 0 24 5 35 15 35 8
0 15 5 15 10 0 6 -13 10 -30 10 -29 0 -30 -2 -30 -45z"/>
<path d="M1670 1265 c0 -33 4 -45 15 -45 10 0 15 11 15 35 0 24 5 35 15 35 8
0 15 5 15 10 0 6 -13 10 -30 10 -29 0 -30 -2 -30 -45z"/>
<path d="M1752 1298 c-17 -17 -15 -53 3 -68 16 -13 69 -5 60 9 -3 5 -14 7 -24
4 -10 -3 -22 0 -25 6 -5 7 4 11 23 11 19 0 31 5 31 13 0 18 -21 37 -40 37 -9
0 -21 -5 -28 -12z m43 -18 c3 -5 -3 -10 -15 -10 -12 0 -18 5 -15 10 3 6 10 10
15 10 5 0 12 -4 15 -10z"/>
<path d="M1852 1298 c-6 -6 -12 -21 -12 -33 0 -41 45 -60 71 -29 11 13 9 15
-17 12 -23 -2 -29 1 -29 17 0 15 6 19 23 17 15 -1 22 2 20 10 -6 18 -41 21
-56 6z"/>
<path d="M4382 1285 c0 -16 2 -22 5 -12 2 9 2 23 0 30 -3 6 -5 -1 -5 -18z"/>
<path d="M6501 1289 c0 -13 4 -33 9 -44 7 -14 8 -8 3 20 -7 46 -13 59 -12 24z"/>
<path d="M6900 1290 c-9 -6 -10 -10 -3 -10 6 0 15 5 18 10 8 12 4 12 -15 0z"/>
<path d="M9060 1293 c22 -9 30 -25 25 -48 -4 -17 -3 -17 6 2 14 26 -2 54 -30
52 -13 0 -14 -2 -1 -6z"/>
<path d="M11460 1290 c-9 -6 -10 -10 -3 -10 6 0 15 5 18 10 8 12 4 12 -15 0z"/>
<path d="M4586 1282 c-3 -6 2 -9 12 -8 11 1 17 -6 17 -19 0 -13 -6 -19 -19
-18 -13 1 -15 -2 -7 -10 18 -18 49 18 35 40 -13 21 -30 27 -38 15z"/>
<path d="M6964 1276 c-10 -26 0 -51 21 -51 16 0 20 7 20 30 0 33 -30 49 -41
21z m36 -21 c0 -16 -6 -25 -15 -25 -9 0 -15 9 -15 25 0 16 6 25 15 25 9 0 15
-9 15 -25z"/>
<path d="M9230 1283 c8 -3 19 -11 23 -17 6 -7 7 -6 4 4 -2 8 -12 16 -23 17
-13 2 -15 1 -4 -4z"/>
<path d="M11524 1276 c-10 -26 0 -51 21 -51 16 0 20 7 20 30 0 33 -30 49 -41
21z m36 -21 c0 -16 -6 -25 -15 -25 -9 0 -15 9 -15 25 0 16 6 25 15 25 9 0 15
-9 15 -25z"/>
<path d="M6430 1270 c0 -5 5 -10 11 -10 5 0 7 5 4 10 -3 6 -8 10 -11 10 -2 0
-4 -4 -4 -10z"/>
<path d="M9211 1254 c0 -11 3 -14 6 -6 3 7 2 16 -1 19 -3 4 -6 -2 -5 -13z"/>
<path d="M9250 1242 c0 -6 -8 -13 -17 -15 -16 -4 -16 -5 -1 -6 18 -1 34 16 24
26 -3 4 -6 1 -6 -5z"/>
<path d="M8970 1230 c0 -5 5 -10 10 -10 6 0 10 5 10 10 0 6 -4 10 -10 10 -5 0
-10 -4 -10 -10z"/>
<path d="M6418 1223 c12 -2 32 -2 45 0 12 2 2 4 -23 4 -25 0 -35 -2 -22 -4z"/>
<path d="M522 108 l-2 -68 38 2 c36 1 36 1 5 5 -32 4 -32 5 -36 66 l-3 62 -2
-67z"/>
<path d="M11502 103 l1 -68 6 55 6 55 14 -32 c17 -41 24 -41 45 0 l16 32 0
-52 c0 -29 5 -53 10 -53 6 0 10 28 10 65 0 36 -4 65 -10 65 -5 0 -18 -17 -29
-37 l-19 -38 -18 38 c-10 20 -21 37 -26 37 -4 0 -7 -30 -6 -67z"/>
<path d="M1441 148 c-1 -10 -5 -18 -9 -18 -5 0 -6 -19 -3 -42 5 -33 11 -43 26
-45 11 -2 14 0 8 3 -7 3 -13 21 -13 40 0 20 5 34 13 34 8 0 9 3 1 8 -6 4 -14
14 -17 22 -4 12 -6 11 -6 -2z"/>
<path d="M12461 148 c-1 -9 -7 -19 -13 -21 -10 -4 -10 -6 0 -6 7 -1 12 -16 12
-41 0 -32 4 -40 18 -39 10 0 12 3 5 6 -7 2 -13 20 -13 39 0 20 5 34 13 34 8 0
9 3 1 8 -6 4 -14 14 -17 22 -4 12 -6 12 -6 -2z"/>
<path d="M612 118 c-15 -15 -15 -51 0 -66 14 -14 44 -16 52 -4 2 4 -7 8 -21 7
-14 0 -28 6 -30 13 -3 8 7 12 31 12 23 0 36 5 36 13 0 18 -21 37 -40 37 -9 0
-21 -5 -28 -12z m46 -15 c2 -8 -6 -13 -22 -13 -19 0 -24 4 -19 15 6 18 34 16
41 -2z"/>
<path d="M704 115 c-8 -20 4 -35 27 -35 11 0 19 -7 19 -16 0 -13 -7 -15 -32
-11 -29 5 -30 4 -11 -5 12 -6 29 -8 37 -5 24 10 19 36 -9 47 -33 12 -33 34 0
28 13 -3 22 -1 19 3 -9 14 -44 10 -50 -6z"/>
<path d="M791 116 c-12 -15 -2 -27 32 -39 27 -10 9 -29 -22 -23 -24 5 -25 5
-4 -6 12 -6 29 -8 38 -4 23 9 14 40 -13 44 -12 2 -22 10 -22 19 0 11 6 14 26
9 17 -5 23 -3 19 4 -9 14 -40 12 -54 -4z"/>
<path d="M919 109 c-16 -31 3 -69 35 -69 14 0 27 4 31 9 3 6 -7 9 -22 8 -25
-2 -28 1 -28 28 0 27 3 30 28 28 15 -1 25 2 22 8 -11 17 -54 10 -66 -12z"/>
<path d="M1009 109 c-15 -28 3 -69 30 -69 29 0 50 26 43 52 -10 42 -54 52 -73
17z m56 -24 c0 -23 -4 -30 -20 -30 -21 0 -31 25 -21 51 11 28 41 12 41 -21z"/>
<path d="M1111 80 l2 -45 6 39 c4 26 13 42 26 47 17 6 15 7 -7 6 -26 -1 -28
-4 -27 -47z"/>
<path d="M1170 85 c0 -25 5 -45 10 -45 6 0 10 20 10 45 0 25 -4 45 -10 45 -5
0 -10 -20 -10 -45z"/>
<path d="M1239 109 c-16 -31 3 -69 35 -69 14 0 27 4 31 9 3 6 -7 9 -21 8 -15
-1 -29 4 -31 11 -3 8 6 12 26 12 24 0 31 4 31 19 0 35 -53 42 -71 10z m59 -6
c2 -8 -6 -13 -22 -13 -25 0 -33 10 -19 24 10 10 36 3 41 -11z"/>
<path d="M1339 109 c-16 -31 3 -69 35 -69 14 0 27 4 31 9 3 6 -7 9 -22 8 -25
-2 -28 1 -28 28 0 27 3 30 28 28 15 -1 25 2 22 8 -11 17 -54 10 -66 -12z"/>
<path d="M11640 116 c-28 -35 11 -93 48 -70 35 22 22 84 -18 84 -10 0 -23 -7
-30 -14z m55 -31 c0 -23 -5 -31 -21 -33 -24 -3 -38 20 -28 50 4 13 13 18 27
16 17 -2 22 -10 22 -33z"/>
<path d="M11742 80 c1 -40 2 -41 5 -10 2 19 11 40 20 47 13 10 13 12 -6 10
-18 -1 -21 -7 -19 -47z"/>
<path d="M11812 118 c-27 -27 -7 -78 29 -78 10 0 20 4 23 8 2 4 -7 8 -21 7
-14 0 -28 6 -30 13 -3 8 7 12 31 12 23 0 36 5 36 13 0 18 -21 37 -40 37 -9 0
-21 -5 -28 -12z m46 -15 c2 -8 -6 -13 -22 -13 -25 0 -33 10 -19 24 10 10 36 3
41 -11z"/>
<path d="M11952 118 c-27 -27 -7 -78 29 -78 10 0 20 4 23 9 3 4 -6 6 -19 3
-19 -3 -25 1 -30 21 -9 35 2 50 32 42 16 -4 22 -2 18 5 -8 14 -38 13 -53 -2z"/>
<path d="M12040 116 c-28 -35 11 -93 48 -70 35 22 22 84 -18 84 -10 0 -23 -7
-30 -14z m55 -15 c9 -29 -5 -52 -29 -49 -37 5 -34 68 3 68 11 0 22 -8 26 -19z"/>
<path d="M12130 85 c0 -25 5 -45 10 -45 6 0 10 20 10 45 0 25 -4 45 -10 45 -5
0 -10 -20 -10 -45z"/>
<path d="M12201 80 l2 -45 6 39 c4 26 13 42 26 47 17 6 15 7 -7 6 -26 -1 -28
-4 -27 -47z"/>
<path d="M12272 118 c-27 -27 -7 -78 29 -78 10 0 20 4 23 8 2 4 -7 8 -21 7
-14 0 -28 6 -30 13 -3 8 7 12 31 12 23 0 36 5 36 13 0 18 -21 37 -40 37 -9 0
-21 -5 -28 -12z m46 -15 c2 -8 -6 -13 -22 -13 -19 0 -24 4 -19 15 6 18 34 16
41 -2z"/>
<path d="M12372 118 c-27 -27 -7 -78 29 -78 10 0 20 4 23 8 2 4 -8 8 -22 7
-23 0 -27 4 -27 30 0 26 4 30 27 30 14 -1 24 3 22 7 -8 12 -38 10 -52 -4z"/>
</g>
</svg>
