<?xml version="1.0" standalone="no"?>
<!DOCTYPE svg PUBLIC "-//W3C//DTD SVG 20010904//EN"
 "http://www.w3.org/TR/2001/REC-SVG-20010904/DTD/svg10.dtd">
<svg version="1.0" xmlns="http://www.w3.org/2000/svg"
 width="675.000000pt" height="712.000000pt" viewBox="0 0 675.000000 712.000000"
 preserveAspectRatio="xMidYMid meet">

<g transform="translate(0.000000,712.000000) scale(0.100000,-0.100000)"
fill="#000000" stroke="none">
<path d="M1032 6898 c-17 -17 -15 -33 3 -18 13 11 15 7 15 -23 0 -25 -5 -37
-17 -40 -10 -3 -1 -5 20 -6 33 -1 37 -4 37 -26 0 -14 5 -25 10 -25 6 0 9 -12
8 -27 -1 -16 4 -38 10 -50 18 -32 15 -193 -3 -217 -19 -25 -19 -55 0 -80 13
-17 15 -79 15 -383 0 -350 -1 -364 -20 -383 -11 -11 -20 -28 -20 -39 0 -10 9
-30 20 -44 19 -24 20 -40 20 -291 0 -257 -1 -266 -20 -276 -17 -9 -20 -20 -19
-55 3 -52 2 -54 -30 -46 -23 6 -23 7 -7 24 10 9 13 17 7 17 -14 0 -41 -41 -41
-61 0 -28 28 -45 51 -31 20 13 23 6 20 -43 -1 -19 -1 -19 9 -2 16 26 30 11 30
-31 l-1 -37 -19 24 -20 23 1 -62 c1 -44 4 -58 11 -46 14 24 28 10 28 -29 0
-26 -4 -33 -14 -29 -8 3 -17 13 -19 22 -4 13 -5 13 -6 -3 0 -11 8 -26 19 -33
26 -16 26 -58 0 -74 -11 -7 -20 -21 -20 -32 0 -16 2 -16 20 5 l19 24 1 -42 c0
-45 -12 -55 -29 -25 -10 16 -10 16 -11 0 0 -10 9 -23 20 -30 18 -12 20 -24 20
-124 0 -98 -2 -113 -20 -129 -11 -10 -20 -25 -20 -33 0 -9 7 -6 20 9 l19 24 1
-42 c0 -45 -12 -55 -29 -25 -10 16 -10 16 -11 0 0 -10 9 -23 20 -30 20 -13 20
-24 20 -1062 l0 -1049 -23 -21 c-18 -16 -28 -20 -40 -12 -37 23 -66 -55 -31
-85 12 -10 20 -10 34 -1 23 14 42 -5 34 -35 -8 -31 13 -65 39 -61 18 2 23 11
25 42 2 21 10 49 19 62 l15 24 2469 0 c1639 0 2469 3 2469 10 0 7 -830 10
-2470 10 -1651 0 -2470 3 -2470 10 0 6 -11 20 -25 32 l-25 22 0 1052 c0 1043
0 1053 20 1064 14 8 20 21 20 45 0 24 -6 39 -20 47 -18 12 -20 24 -20 130 0
107 2 118 20 128 28 15 28 75 0 92 -27 17 -27 69 -1 85 18 11 19 24 18 162 0
83 2 154 6 157 15 16 6 54 -18 72 l-25 20 0 264 0 264 30 22 c17 13 30 30 29
40 0 13 -2 12 -9 -5 -5 -12 -18 -27 -29 -33 -20 -10 -21 -8 -21 41 l0 51 28
-16 27 -17 -22 20 -23 19 0 364 0 365 25 11 c14 6 25 19 25 29 0 15 -3 14 -16
-5 -23 -34 -34 -27 -34 23 0 50 11 57 34 23 13 -18 16 -19 16 -6 0 10 -10 22
-21 29 -21 11 -21 16 -16 101 5 77 9 93 27 105 12 8 20 25 20 36 -1 12 1 31 5
43 7 21 14 23 102 24 30 0 73 31 73 52 0 4 164 8 365 8 353 0 365 -1 375 -20
22 -41 91 -34 105 10 6 20 15 20 1915 20 l1908 0 16 -25 c12 -18 25 -25 50
-25 43 0 58 19 54 67 -3 37 -4 38 -45 41 -34 2 -45 -1 -55 -17 l-13 -21 -1911
0 c-1898 0 -1911 0 -1929 20 -10 11 -31 20 -47 20 -16 0 -36 -9 -45 -20 -17
-19 -30 -20 -384 -20 -318 0 -368 2 -379 15 -11 13 -30 15 -107 11 -57 -3 -93
-2 -93 4 0 11 -49 13 -74 4 -11 -4 -16 -19 -16 -45 0 -28 -4 -39 -15 -39 -11
0 -15 12 -15 45 0 46 -7 54 -28 33z m132 -7 c3 -5 -2 -11 -12 -14 -9 -2 -25
-8 -34 -12 -13 -5 -18 -2 -18 8 0 23 52 38 64 18z m1054 -3 c21 -21 13 -28
-28 -28 -22 0 -40 4 -40 8 0 14 23 32 40 32 9 0 21 -5 28 -12z m3956 -10 c16
-26 -4 -53 -40 -53 -23 0 -30 5 -32 23 -7 47 47 69 72 30z m-4804 -3 c11 -13
7 -15 -30 -15 -37 0 -41 2 -30 15 7 8 20 15 30 15 10 0 23 -7 30 -15z m-90 -4
c0 -9 -41 -23 -48 -16 -2 2 -1 8 3 14 8 13 45 15 45 2z m-70 -11 c0 -5 -7 -10
-15 -10 -10 0 -15 -10 -15 -31 0 -27 -2 -30 -15 -19 -18 15 -19 42 -3 58 15
15 48 16 48 2z m70 -19 c0 -5 3 -16 6 -25 9 -24 -43 -21 -56 3 -10 20 -10 20
43 30 4 0 7 -3 7 -8z m100 0 c0 -32 -72 -40 -78 -8 -3 14 4 17 37 17 23 0 41
-4 41 -9z m843 -7 c-7 -18 -64 -16 -71 4 -2 8 9 12 37 12 32 0 39 -3 34 -16z
m-1013 -19 c0 -14 -4 -25 -10 -25 -5 0 -10 11 -10 25 0 14 5 25 10 25 6 0 10
-11 10 -25z m-91 -30 c0 -5 -4 -3 -9 5 -5 8 -9 22 -9 30 0 16 17 -16 18 -35z
m95 -37 c-5 -7 -8 -23 -8 -37 -1 -30 -26 -41 -26 -12 0 12 5 21 11 21 5 0 7 5
3 11 -3 6 0 15 7 20 19 12 22 11 13 -3z m-44 -8 c0 -5 -4 -10 -10 -10 -5 0
-10 5 -10 10 0 6 5 10 10 10 6 0 10 -4 10 -10z m0 -40 c0 -11 -4 -20 -10 -20
-5 0 -10 9 -10 20 0 11 5 20 10 20 6 0 10 -9 10 -20z m-13 -92 c-3 -8 -6 -5
-6 6 -1 11 2 17 5 13 3 -3 4 -12 1 -19z m-27 -185 c0 -21 -3 -24 -9 -14 -5 8
-7 20 -4 28 8 21 13 15 13 -14z m0 -843 c0 -16 -4 -30 -10 -30 -5 0 -10 14
-10 30 0 17 5 30 10 30 6 0 10 -13 10 -30z m50 -624 c15 -20 9 -61 -10 -61
-10 0 -16 12 -18 38 -3 39 7 47 28 23z m-50 -26 c0 -20 -5 -30 -15 -30 -15 0
-21 40 -8 53 14 15 23 6 23 -23z m0 -90 c0 -30 -3 -38 -14 -34 -18 7 -26 37
-14 58 16 28 28 18 28 -24z m50 0 c0 -10 -7 -23 -15 -30 -13 -11 -15 -7 -15
30 0 37 2 41 15 30 8 -7 15 -20 15 -30z m-105 -1 c0 -24 -40 -17 -41 8 -1 18
2 20 20 14 12 -5 21 -15 21 -22z m101 -75 c4 -17 1 -31 -10 -42 -15 -15 -16
-13 -16 26 0 47 16 56 26 16z m-46 -81 c0 -20 -24 -11 -28 10 -2 12 1 15 12
11 9 -3 16 -13 16 -21z m37 0 c-15 -16 -17 -16 -17 -1 0 9 6 18 13 21 20 7 22
-2 4 -20z m13 -63 c0 -10 -7 -23 -15 -30 -13 -11 -15 -7 -15 30 0 37 2 41 15
30 8 -7 15 -20 15 -30z m-4 -184 c-10 -40 -26 -31 -26 16 0 39 1 41 16 26 11
-11 14 -25 10 -42z m0 -350 c-10 -40 -26 -31 -26 16 0 39 1 41 16 26 11 -11
14 -25 10 -42z m-8 -2188 c19 -19 14 -28 -15 -29 -25 -2 -25 -2 -5 -6 32 -6
22 -28 -14 -28 -23 0 -30 5 -32 23 -2 13 -1 30 2 38 7 17 47 19 64 2z m-88
-18 c14 -26 -4 -63 -28 -58 -18 3 -28 39 -18 64 8 20 34 17 46 -6z m75 -110
c0 -40 -29 -55 -38 -20 -8 31 3 61 22 58 11 -2 16 -14 16 -38z"/>
<path d="M902 6398 c-17 -17 -15 -63 4 -79 22 -18 48 0 52 35 6 45 -29 71 -56
44z m43 -38 c0 -28 -4 -35 -20 -35 -13 0 -21 8 -23 23 -5 34 5 54 25 50 13 -2
18 -13 18 -38z"/>
<path d="M1030 6396 c-17 -21 -6 -44 21 -48 22 -3 22 -3 4 -22 -13 -13 -15
-18 -5 -14 26 8 47 55 34 75 -15 24 -38 27 -54 9z m48 -13 c5 -17 -26 -29 -40
-15 -6 6 -7 15 -3 22 9 14 37 9 43 -7z"/>
<path d="M980 6320 c0 -5 5 -10 10 -10 6 0 10 5 10 10 0 6 -4 10 -10 10 -5 0
-10 -4 -10 -10z"/>
<path d="M902 5898 c-17 -17 -15 -63 4 -79 22 -18 48 0 52 35 6 45 -29 71 -56
44z m43 -38 c0 -28 -4 -35 -20 -35 -13 0 -21 8 -23 23 -5 34 5 54 25 50 13 -2
18 -13 18 -38z"/>
<path d="M1025 5900 c-4 -6 -1 -17 5 -25 10 -12 10 -15 1 -15 -7 0 -11 -10 -9
-22 2 -18 10 -23 33 -23 23 0 31 5 33 23 2 12 -2 22 -9 22 -9 0 -9 3 1 15 16
19 4 35 -25 35 -13 0 -27 -5 -30 -10z m50 -9 c3 -5 1 -13 -5 -16 -15 -9 -43 3
-35 15 8 13 32 13 40 1z m3 -48 c5 -17 -26 -29 -40 -15 -6 6 -7 15 -3 22 9 14
37 9 43 -7z"/>
<path d="M980 5820 c0 -5 5 -10 10 -10 6 0 10 5 10 10 0 6 -4 10 -10 10 -5 0
-10 -4 -10 -10z"/>
<path d="M902 5398 c-17 -17 -15 -63 4 -79 22 -18 48 0 52 35 6 45 -29 71 -56
44z m43 -38 c0 -28 -4 -35 -20 -35 -13 0 -21 8 -23 23 -5 34 5 54 25 50 13 -2
18 -13 18 -38z"/>
<path d="M1021 5393 c0 -11 3 -13 6 -5 6 15 43 16 43 2 0 -6 -7 -25 -16 -41
-8 -17 -13 -33 -11 -36 4 -4 47 81 47 93 0 2 -16 4 -35 4 -27 0 -35 -4 -34
-17z"/>
<path d="M560 5320 c-11 -8 -7 -9 15 -4 37 8 45 14 19 14 -10 0 -26 -5 -34
-10z"/>
<path d="M980 5320 c0 -5 5 -10 10 -10 6 0 10 5 10 10 0 6 -4 10 -10 10 -5 0
-10 -4 -10 -10z"/>
<path d="M620 5316 c0 -2 7 -7 16 -10 8 -3 12 -2 9 4 -6 10 -25 14 -25 6z"/>
<path d="M565 5280 c3 -5 20 -12 38 -16 l32 -7 -32 -11 c-17 -6 -35 -14 -39
-18 -4 -5 14 -1 40 8 41 14 50 14 58 3 8 -12 9 -12 6 0 -2 8 -28 22 -56 32
-29 10 -50 14 -47 9z"/>
<path d="M550 5200 c-4 -3 -2 -11 6 -18 8 -7 14 -8 14 -2 0 5 16 10 35 10 19
0 35 3 35 8 0 8 -77 10 -90 2z"/>
<path d="M560 5150 c0 -5 18 -10 40 -10 22 0 40 5 40 10 0 6 -18 10 -40 10
-22 0 -40 -4 -40 -10z"/>
<path d="M565 5110 c3 -4 20 -12 38 -16 l32 -7 -35 -12 c-19 -6 -36 -19 -38
-28 -3 -14 5 -17 37 -17 51 0 54 20 4 21 l-38 1 35 12 c42 15 41 27 -6 43 -19
7 -32 8 -29 3z"/>
<path d="M550 5000 c-4 -3 -2 -11 6 -18 8 -7 14 -8 14 -2 0 5 16 10 35 10 19
0 35 3 35 8 0 8 -77 10 -90 2z"/>
<path d="M560 4950 c0 -5 18 -10 40 -10 22 0 40 5 40 10 0 6 -18 10 -40 10
-22 0 -40 -4 -40 -10z"/>
<path d="M608 4913 c7 -3 16 -2 19 1 4 3 -2 6 -13 5 -11 0 -14 -3 -6 -6z"/>
<path d="M902 4898 c-17 -17 -15 -63 4 -79 22 -18 48 0 52 35 6 45 -29 71 -56
44z m43 -38 c0 -28 -4 -35 -20 -35 -13 0 -21 8 -23 23 -5 34 5 54 25 50 13 -2
18 -13 18 -38z"/>
<path d="M580 4880 c-13 -8 -12 -10 3 -10 9 0 17 5 17 10 0 12 -1 12 -20 0z"/>
<path d="M570 4835 c-7 -9 -10 -18 -6 -22 3 -3 6 -1 6 5 0 7 15 12 35 12 19 0
35 5 35 10 0 16 -56 12 -70 -5z"/>
<path d="M980 4820 c0 -5 5 -10 10 -10 6 0 10 5 10 10 0 6 -4 10 -10 10 -5 0
-10 -4 -10 -10z"/>
<path d="M578 4793 c12 -2 32 -2 45 0 12 2 2 4 -23 4 -25 0 -35 -2 -22 -4z"/>
<path d="M578 4753 c7 -3 16 -2 19 1 4 3 -2 6 -13 5 -11 0 -14 -3 -6 -6z"/>
<path d="M583 4703 c9 -2 25 -2 35 0 9 3 1 5 -18 5 -19 0 -27 -2 -17 -5z"/>
<path d="M608 4673 c7 -3 16 -2 19 1 4 3 -2 6 -13 5 -11 0 -14 -3 -6 -6z"/>
<path d="M580 4640 c-13 -8 -12 -10 3 -10 9 0 17 5 17 10 0 12 -1 12 -20 0z"/>
<path d="M630 4600 c-9 -6 -10 -10 -3 -10 6 0 15 5 18 10 8 12 4 12 -15 0z"/>
<path d="M560 4590 c8 -5 24 -10 34 -10 26 0 18 6 -19 14 -22 5 -26 4 -15 -4z"/>
<path d="M578 4513 c7 -3 16 -2 19 1 4 3 -2 6 -13 5 -11 0 -14 -3 -6 -6z"/>
<path d="M583 4463 c9 -2 25 -2 35 0 9 3 1 5 -18 5 -19 0 -27 -2 -17 -5z"/>
<path d="M550 4430 c-4 -3 -2 -11 6 -18 8 -7 14 -8 14 -2 0 5 16 10 35 10 19
0 35 3 35 8 0 8 -77 10 -90 2z"/>
<path d="M902 4398 c-17 -17 -15 -63 4 -79 22 -18 48 0 52 35 6 45 -29 71 -56
44z m43 -38 c0 -28 -4 -35 -20 -35 -13 0 -21 8 -23 23 -5 34 5 54 25 50 13 -2
18 -13 18 -38z"/>
<path d="M1030 4382 c0 -23 4 -28 23 -28 13 1 22 -5 22 -14 0 -10 -9 -14 -28
-13 -15 1 -25 -2 -22 -8 9 -14 41 -11 55 6 16 20 5 45 -20 45 -27 0 -26 28 3
33 19 4 18 4 -5 6 -24 1 -28 -3 -28 -27z"/>
<path d="M606 4391 c-35 -7 -56 -35 -39 -52 9 -9 11 -7 6 10 -4 17 -1 21 18
21 24 0 57 16 49 23 -3 2 -18 1 -34 -2z"/>
<path d="M630 4352 c0 -6 -8 -13 -17 -15 -16 -4 -16 -5 -1 -6 18 -1 34 16 24
26 -3 4 -6 1 -6 -5z"/>
<path d="M980 4320 c0 -5 5 -10 10 -10 6 0 10 5 10 10 0 6 -4 10 -10 10 -5 0
-10 -4 -10 -10z"/>
<path d="M578 4293 c12 -2 32 -2 45 0 12 2 2 4 -23 4 -25 0 -35 -2 -22 -4z"/>
<path d="M578 4213 c7 -3 16 -2 19 1 4 3 -2 6 -13 5 -11 0 -14 -3 -6 -6z"/>
<path d="M583 4163 c9 -2 25 -2 35 0 9 3 1 5 -18 5 -19 0 -27 -2 -17 -5z"/>
<path d="M565 4140 c3 -4 20 -12 38 -16 l32 -7 -32 -11 c-17 -6 -35 -14 -39
-19 -4 -4 9 -2 29 5 46 16 46 30 1 45 -19 7 -32 8 -29 3z"/>
<path d="M560 4060 c0 -5 18 -10 40 -10 22 0 40 5 40 10 0 6 -18 10 -40 10
-22 0 -40 -4 -40 -10z"/>
<path d="M550 4020 c-4 -3 -2 -11 6 -18 8 -7 14 -8 14 -2 0 5 16 10 35 10 19
0 35 3 35 8 0 8 -77 10 -90 2z"/>
<path d="M560 3970 c0 -5 18 -10 40 -10 22 0 40 5 40 10 0 6 -18 10 -40 10
-22 0 -40 -4 -40 -10z"/>
<path d="M608 3933 c7 -3 16 -2 19 1 4 3 -2 6 -13 5 -11 0 -14 -3 -6 -6z"/>
<path d="M580 3900 c-13 -8 -12 -10 3 -10 9 0 17 5 17 10 0 12 -1 12 -20 0z"/>
<path d="M902 3898 c-17 -17 -15 -63 4 -79 22 -18 48 0 52 35 6 45 -29 71 -56
44z m43 -38 c0 -28 -4 -35 -20 -35 -13 0 -21 8 -23 23 -5 34 5 54 25 50 13 -2
18 -13 18 -38z"/>
<path d="M1040 3878 c-26 -43 -25 -48 5 -48 14 0 25 -6 25 -12 0 -10 2 -10 8
-1 10 16 2 93 -9 93 -5 0 -18 -15 -29 -32z m30 -8 c0 -23 -4 -30 -20 -30 -20
0 -20 1 -5 30 9 17 18 30 20 30 3 0 5 -13 5 -30z"/>
<path d="M583 3863 c9 -2 25 -2 35 0 9 3 1 5 -18 5 -19 0 -27 -2 -17 -5z"/>
<path d="M980 3820 c0 -5 5 -10 10 -10 6 0 10 5 10 10 0 6 -4 10 -10 10 -5 0
-10 -4 -10 -10z"/>
<path d="M583 3813 c9 -2 25 -2 35 0 9 3 1 5 -18 5 -19 0 -27 -2 -17 -5z"/>
<path d="M572 3778 c-7 -7 -12 -17 -12 -22 0 -6 5 -3 11 7 5 9 19 17 29 17 10
0 24 -8 29 -17 6 -10 11 -13 11 -7 0 15 -22 34 -40 34 -9 0 -21 -5 -28 -12z"/>
<path d="M560 3730 c0 -5 25 -10 55 -10 30 0 55 5 55 10 0 6 -25 10 -55 10
-30 0 -55 -4 -55 -10z"/>
<path d="M578 3653 c7 -3 16 -2 19 1 4 3 -2 6 -13 5 -11 0 -14 -3 -6 -6z"/>
<path d="M583 3603 c9 -2 25 -2 35 0 9 3 1 5 -18 5 -19 0 -27 -2 -17 -5z"/>
<path d="M578 3573 c12 -2 32 -2 45 0 12 2 2 4 -23 4 -25 0 -35 -2 -22 -4z"/>
<path d="M630 3552 c0 -7 -15 -12 -35 -12 -19 0 -35 -4 -35 -10 0 -16 56 -12
70 5 7 9 10 18 6 22 -3 3 -6 1 -6 -5z"/>
<path d="M578 3473 c12 -2 32 -2 45 0 12 2 2 4 -23 4 -25 0 -35 -2 -22 -4z"/>
<path d="M542 3425 c0 -22 2 -32 5 -23 3 12 18 18 51 21 l47 3 -47 2 c-35 2
-48 6 -51 20 -3 9 -5 -1 -5 -23z"/>
<path d="M902 3398 c-17 -17 -15 -63 4 -79 22 -18 48 0 52 35 6 45 -29 71 -56
44z m43 -38 c0 -28 -4 -35 -20 -35 -13 0 -21 8 -23 23 -5 34 5 54 25 50 13 -2
18 -13 18 -38z"/>
<path d="M1025 3400 c-4 -7 2 -9 19 -4 20 5 26 2 26 -9 0 -9 -8 -18 -17 -20
-17 -4 -17 -5 0 -6 10 -1 17 -9 17 -22 0 -18 -5 -20 -26 -16 -16 3 -22 1 -16
-5 6 -6 18 -8 28 -6 15 3 19 12 19 48 0 38 -3 45 -22 48 -11 2 -24 -2 -28 -8z"/>
<path d="M980 3320 c0 -5 5 -10 10 -10 6 0 10 5 10 10 0 6 -4 10 -10 10 -5 0
-10 -4 -10 -10z"/>
<path d="M902 2898 c-17 -17 -15 -63 4 -79 22 -18 48 0 52 35 6 45 -29 71 -56
44z m43 -38 c0 -28 -4 -35 -20 -35 -13 0 -21 8 -23 23 -5 34 5 54 25 50 13 -2
18 -13 18 -38z"/>
<path d="M1027 2903 c-4 -3 -7 -11 -7 -17 0 -6 5 -5 12 2 7 7 18 12 25 12 22
0 15 -32 -14 -62 l-27 -28 40 1 c30 2 33 3 11 6 l-28 4 26 31 c20 24 23 33 14
44 -12 15 -41 19 -52 7z"/>
<path d="M980 2820 c0 -5 5 -10 10 -10 6 0 10 5 10 10 0 6 -4 10 -10 10 -5 0
-10 -4 -10 -10z"/>
<path d="M902 2398 c-17 -17 -15 -63 4 -79 22 -18 48 0 52 35 6 45 -29 71 -56
44z m43 -38 c0 -28 -4 -35 -20 -35 -13 0 -21 8 -23 23 -5 34 5 54 25 50 13 -2
18 -13 18 -38z"/>
<path d="M1032 2398 c-17 -17 -15 -33 3 -18 13 11 15 7 15 -23 0 -25 -5 -37
-17 -40 -10 -3 0 -5 22 -5 22 0 32 2 23 5 -14 3 -18 15 -18 49 0 45 -7 53 -28
32z"/>
<path d="M980 2320 c0 -5 5 -10 10 -10 6 0 10 5 10 10 0 6 -4 10 -10 10 -5 0
-10 -4 -10 -10z"/>
<path d="M1544 1795 c-9 -37 3 -75 24 -75 25 0 42 20 42 50 0 50 -54 71 -66
25z m51 -5 c9 -29 -4 -62 -23 -58 -18 3 -28 39 -18 64 8 21 34 17 41 -6z"/>
<path d="M1682 1808 c-17 -17 -15 -33 3 -18 13 11 15 7 15 -23 0 -25 -5 -37
-17 -40 -10 -3 0 -5 22 -5 22 0 32 2 23 5 -14 3 -18 15 -18 49 0 45 -7 53 -28
32z"/>
<path d="M2044 1795 c-9 -37 3 -75 24 -75 25 0 42 20 42 50 0 50 -54 71 -66
25z m51 -5 c9 -29 -4 -62 -23 -58 -18 3 -28 39 -18 64 8 21 34 17 41 -6z"/>
<path d="M2177 1814 c-4 -4 -7 -12 -7 -18 0 -6 5 -5 12 2 7 7 18 12 25 12 22
0 14 -37 -12 -58 -34 -27 -32 -32 13 -31 31 2 33 3 8 6 l-28 5 22 23 c12 13
20 31 18 42 -3 18 -38 30 -51 17z"/>
<path d="M2544 1795 c-9 -37 3 -75 24 -75 25 0 42 20 42 50 0 50 -54 71 -66
25z m51 -5 c9 -29 -4 -62 -23 -58 -18 3 -28 39 -18 64 8 21 34 17 41 -6z"/>
<path d="M2676 1812 c-3 -5 5 -7 18 -5 17 4 26 0 30 -14 4 -16 5 -15 3 2 -2
21 -40 34 -51 17z"/>
<path d="M3044 1795 c-9 -37 3 -75 24 -75 25 0 42 20 42 50 0 50 -54 71 -66
25z m51 -5 c9 -29 -4 -62 -23 -58 -18 3 -28 39 -18 64 8 21 34 17 41 -6z"/>
<path d="M3185 1783 l-25 -38 30 -3 c16 -2 30 -9 30 -15 0 -9 2 -9 8 0 10 16
3 93 -9 93 -4 0 -20 -17 -34 -37z m35 -8 c0 -18 -5 -25 -20 -25 -23 0 -24 3
-8 30 17 27 28 25 28 -5z"/>
<path d="M3544 1795 c-9 -37 3 -75 24 -75 25 0 42 20 42 50 0 50 -54 71 -66
25z m51 -5 c9 -29 -4 -62 -23 -58 -18 3 -28 39 -18 64 8 21 34 17 41 -6z"/>
<path d="M3680 1803 c0 -12 3 -14 8 -7 4 7 16 14 27 17 15 4 14 5 -7 6 -21 1
-28 -4 -28 -16z"/>
<path d="M4044 1795 c-9 -37 3 -75 24 -75 25 0 42 20 42 50 0 50 -54 71 -66
25z m51 -5 c9 -29 -4 -62 -23 -58 -18 3 -28 39 -18 64 8 21 34 17 41 -6z"/>
<path d="M4184 1796 c-21 -33 -15 -70 12 -74 11 -2 26 3 33 11 15 19 4 47 -20
47 -24 0 -25 16 -1 29 9 6 11 11 5 11 -7 0 -20 -11 -29 -24z m41 -47 c0 -24
-40 -17 -41 8 -1 18 2 20 20 14 12 -5 21 -15 21 -22z"/>
<path d="M4544 1795 c-9 -37 3 -75 24 -75 25 0 42 20 42 50 0 50 -54 71 -66
25z m51 -5 c9 -29 -4 -62 -23 -58 -18 3 -28 39 -18 64 8 21 34 17 41 -6z"/>
<path d="M4671 1803 c0 -11 3 -13 6 -5 4 11 43 18 43 7 0 -3 -7 -22 -15 -42
-8 -19 -15 -38 -15 -42 1 -9 19 24 36 64 l14 35 -35 0 c-27 0 -35 -4 -34 -17z"/>
<path d="M5044 1795 c-9 -37 3 -75 24 -75 25 0 42 20 42 50 0 50 -54 71 -66
25z m51 -5 c9 -29 -4 -62 -23 -58 -18 3 -28 39 -18 64 8 21 34 17 41 -6z"/>
<path d="M5173 1804 c-3 -9 0 -20 8 -25 11 -7 11 -9 1 -9 -8 0 -12 -9 -10 -22
3 -25 33 -34 58 -18 12 8 13 13 3 29 -8 12 -9 22 -3 26 5 3 7 12 3 20 -7 20
-52 19 -60 -1z m47 -9 c0 -8 -6 -15 -14 -15 -17 0 -28 14 -19 24 12 12 33 6
33 -9z m8 -42 c5 -17 -26 -29 -40 -15 -6 6 -7 15 -3 22 9 14 37 9 43 -7z"/>
<path d="M5544 1795 c-9 -37 3 -75 24 -75 25 0 42 20 42 50 0 50 -54 71 -66
25z m51 -5 c9 -29 -4 -62 -23 -58 -18 3 -28 39 -18 64 8 21 34 17 41 -6z"/>
<path d="M5674 1806 c-10 -25 3 -46 27 -46 22 0 22 0 3 -21 -14 -16 -15 -21
-4 -17 26 8 47 55 34 75 -15 24 -52 29 -60 9z m54 -13 c5 -17 -26 -29 -40 -15
-6 6 -7 15 -3 22 9 14 37 9 43 -7z"/>
<path d="M6111 1798 c-10 -18 -11 -20 0 -10 21 20 29 14 29 -22 0 -24 -5 -36
-17 -39 -10 -3 -2 -5 17 -5 19 0 29 2 23 5 -8 3 -13 23 -13 49 0 49 -17 58
-39 22z"/>
<path d="M3670 1770 c0 -6 11 -8 25 -4 21 5 25 3 25 -16 0 -19 -4 -21 -26 -16
-17 5 -23 3 -19 -4 9 -15 41 -12 55 5 10 12 10 18 0 30 -14 17 -60 21 -60 5z"/>
<path d="M2721 1751 c-1 -19 -5 -23 -26 -19 -13 3 -22 1 -19 -3 3 -5 14 -9 25
-9 21 0 34 21 26 42 -3 7 -6 2 -6 -11z"/>
<path d="M1630 1730 c0 -5 5 -10 10 -10 6 0 10 5 10 10 0 6 -4 10 -10 10 -5 0
-10 -4 -10 -10z"/>
<path d="M2130 1730 c0 -5 5 -10 10 -10 6 0 10 5 10 10 0 6 -4 10 -10 10 -5 0
-10 -4 -10 -10z"/>
<path d="M2630 1730 c0 -5 5 -10 10 -10 6 0 10 5 10 10 0 6 -4 10 -10 10 -5 0
-10 -4 -10 -10z"/>
<path d="M3130 1730 c0 -5 5 -10 10 -10 6 0 10 5 10 10 0 6 -4 10 -10 10 -5 0
-10 -4 -10 -10z"/>
<path d="M3630 1730 c0 -5 5 -10 10 -10 6 0 10 5 10 10 0 6 -4 10 -10 10 -5 0
-10 -4 -10 -10z"/>
<path d="M4130 1730 c0 -5 5 -10 10 -10 6 0 10 5 10 10 0 6 -4 10 -10 10 -5 0
-10 -4 -10 -10z"/>
<path d="M4630 1730 c0 -5 5 -10 10 -10 6 0 10 5 10 10 0 6 -4 10 -10 10 -5 0
-10 -4 -10 -10z"/>
<path d="M5130 1730 c0 -5 5 -10 10 -10 6 0 10 5 10 10 0 6 -4 10 -10 10 -5 0
-10 -4 -10 -10z"/>
<path d="M5630 1730 c0 -5 5 -10 10 -10 6 0 10 5 10 10 0 6 -4 10 -10 10 -5 0
-10 -4 -10 -10z"/>
<path d="M4368 1203 c-2 -10 -1 -36 3 -58 l6 -40 2 38 c1 25 6 37 15 37 10 0
16 -13 19 -37 l4 -38 1 43 c2 37 -1 42 -19 42 -15 0 -19 5 -15 15 3 8 2 15 -3
15 -5 0 -10 -8 -13 -17z"/>
<path d="M2571 1158 c1 -29 4 -41 6 -26 3 18 12 28 26 31 l22 4 -22 2 c-33 2
-29 29 5 34 25 4 25 4 -5 6 l-33 1 1 -52z"/>
<path d="M3872 1198 c-7 -7 -12 -16 -12 -22 0 -5 7 -1 15 10 13 18 14 16 15
-23 0 -31 -4 -43 -17 -46 -10 -3 0 -5 22 -5 22 0 32 2 23 5 -14 3 -18 15 -18
49 0 45 -7 53 -28 32z"/>
<path d="M2647 1183 c-3 -5 5 -8 18 -8 13 0 21 3 18 8 -2 4 -10 7 -18 7 -8 0
-16 -3 -18 -7z"/>
<path d="M2764 1178 c-7 -11 22 -39 40 -37 6 0 1 5 -11 11 -28 14 -30 32 -3
25 11 -3 18 -1 14 4 -7 13 -31 11 -40 -3z"/>
<path d="M2840 1175 c-15 -18 -10 -45 12 -59 12 -7 21 -7 28 0 8 8 4 10 -11
10 -12 -1 -24 5 -26 12 -3 8 6 12 26 12 33 0 39 8 19 28 -16 16 -33 15 -48 -3z
m45 -5 c4 -6 -5 -10 -20 -10 -15 0 -24 4 -20 10 3 6 12 10 20 10 8 0 17 -4 20
-10z"/>
<path d="M2966 1182 c-3 -5 5 -8 17 -8 17 1 22 -5 22 -24 0 -20 -5 -25 -23
-24 -16 0 -20 -2 -12 -10 13 -13 44 4 48 28 6 31 -37 62 -52 38z"/>
<path d="M3046 1182 c-3 -5 5 -8 17 -8 17 1 22 -5 22 -24 0 -20 -5 -25 -23
-24 -16 0 -20 -2 -12 -10 13 -13 44 4 48 28 6 31 -37 62 -52 38z"/>
<path d="M3124 1178 c-7 -11 22 -39 40 -37 6 0 1 5 -11 11 -28 14 -30 32 -3
25 11 -3 18 -1 14 4 -7 13 -31 11 -40 -3z"/>
<path d="M3203 1150 c0 -25 2 -35 4 -22 2 12 2 32 0 45 -2 12 -4 2 -4 -23z"/>
<path d="M3238 1183 c7 -3 16 -2 19 1 4 3 -2 6 -13 5 -11 0 -14 -3 -6 -6z"/>
<path d="M3316 1177 c3 -10 9 -15 12 -12 3 3 0 11 -7 18 -10 9 -11 8 -5 -6z"/>
<path d="M3423 1184 c27 -8 20 -27 -9 -21 -21 4 -25 1 -22 -16 4 -26 34 -45
48 -31 8 8 4 10 -11 10 -12 -1 -24 5 -26 12 -3 7 5 12 22 12 20 0 26 4 23 17
-2 10 -12 19 -23 20 -16 1 -16 1 -2 -3z"/>
<path d="M3511 1145 c2 -33 3 -35 6 -10 2 17 11 35 20 42 13 10 13 12 -6 10
-18 -1 -21 -7 -20 -42z"/>
<path d="M3567 1183 c-3 -5 5 -8 18 -8 13 0 21 3 18 8 -2 4 -10 7 -18 7 -8 0
-16 -3 -18 -7z"/>
<path d="M3648 1150 c2 -22 7 -40 11 -40 3 0 6 18 6 40 0 22 -5 40 -10 40 -6
0 -9 -17 -7 -40z"/>
<path d="M3700 1175 c-15 -18 -10 -45 12 -59 12 -7 21 -7 28 0 8 8 4 10 -11
10 -12 -1 -24 5 -26 12 -3 8 6 12 26 12 33 0 39 8 19 28 -16 16 -33 15 -48 -3z
m45 -5 c4 -6 -5 -10 -20 -10 -15 0 -24 4 -20 10 3 6 12 10 20 10 8 0 17 -4 20
-10z"/>
<path d="M4017 1183 c-13 -13 -7 -31 13 -36 11 -3 20 -11 20 -17 0 -8 -8 -10
-21 -7 -16 4 -19 3 -11 -5 14 -14 42 -3 42 16 0 8 -9 18 -20 21 -26 8 -26 29
0 22 11 -3 18 -1 14 4 -6 11 -28 12 -37 2z"/>
<path d="M4096 1182 c-3 -5 5 -8 17 -8 17 1 22 -5 22 -24 0 -20 -5 -25 -23
-24 -16 0 -20 -2 -12 -10 13 -13 44 4 48 28 6 31 -37 62 -52 38z"/>
<path d="M4176 1181 c-4 -5 2 -7 13 -4 10 3 22 0 25 -6 5 -7 -4 -11 -23 -11
-17 0 -31 -4 -31 -8 0 -4 16 -6 35 -4 37 4 42 11 23 30 -14 14 -35 16 -42 3z"/>
<path d="M4254 1176 c-16 -42 20 -86 48 -58 6 6 0 8 -16 5 -24 -5 -26 -2 -26
27 0 29 3 32 25 28 13 -3 22 -1 19 3 -8 14 -44 10 -50 -5z"/>
<path d="M4333 1150 c0 -25 2 -35 4 -22 2 12 2 32 0 45 -2 12 -4 2 -4 -23z"/>
<path d="M4457 1183 c-3 -5 5 -8 18 -8 13 0 21 3 18 8 -2 4 -10 7 -18 7 -8 0
-16 -3 -18 -7z"/>
<path d="M4523 1150 c0 -25 2 -35 4 -22 2 12 2 32 0 45 -2 12 -4 2 -4 -23z"/>
<path d="M4559 1153 c3 -20 12 -38 19 -39 7 -1 8 0 2 3 -14 7 -12 60 3 66 6 3
3 6 -9 6 -19 1 -20 -3 -15 -36z"/>
<path d="M4606 1177 c3 -10 9 -15 12 -12 3 3 0 11 -7 18 -10 9 -11 8 -5 -6z"/>
<path d="M4702 1160 c0 -14 2 -19 5 -12 2 6 2 18 0 25 -3 6 -5 1 -5 -13z"/>
<path d="M2644 1145 c-9 -21 4 -35 31 -33 13 1 22 5 19 9 -2 4 -13 5 -24 2
-14 -4 -20 0 -20 10 0 9 10 18 23 20 l22 4 -23 2 c-12 0 -25 -6 -28 -14z"/>
<path d="M3564 1145 c-9 -21 4 -35 31 -33 13 1 22 5 19 9 -2 4 -13 5 -24 2
-14 -4 -20 0 -20 10 0 9 10 18 23 20 l22 4 -23 2 c-12 0 -25 -6 -28 -14z"/>
<path d="M3958 1153 c6 -2 18 -2 25 0 6 3 1 5 -13 5 -14 0 -19 -2 -12 -5z"/>
<path d="M3331 1145 c0 -5 3 -16 8 -23 7 -11 9 -10 14 3 4 9 3 14 -2 10 -5 -3
-12 1 -14 7 -3 7 -6 9 -6 3z"/>
<path d="M4627 1132 c1 -8 3 -19 3 -25 0 -7 4 -6 10 3 12 19 13 33 1 26 -5 -4
-11 -3 -14 1 -2 5 -2 2 0 -5z"/>
<path d="M2767 1118 c2 -5 10 -8 18 -8 8 0 16 3 18 8 3 4 -5 7 -18 7 -13 0
-21 -3 -18 -7z"/>
<path d="M3127 1118 c2 -5 10 -8 18 -8 8 0 16 3 18 8 3 4 -5 7 -18 7 -13 0
-21 -3 -18 -7z"/>
<path d="M4180 1116 c6 -6 18 -5 32 1 21 10 21 10 -9 9 -19 -1 -28 -5 -23 -10z"/>
<path d="M4457 1118 c2 -5 10 -8 18 -8 8 0 16 3 18 8 3 4 -5 7 -18 7 -13 0
-21 -3 -18 -7z"/>
</g>
</svg>
